<?xml version="1.0" encoding="UTF-8" standalone="no"?>
<!DOCTYPE svg PUBLIC "-//W3C//DTD SVG 1.1//EN" "http://www.w3.org/Graphics/SVG/1.1/DTD/svg11.dtd">
<svg xmlns:xlink="http://www.w3.org/1999/xlink" height="1500px" version="1.1" viewBox="0 0 1500 1500" width="1500px" x="0px" y="0px" xmlns="http://www.w3.org/2000/svg">
  <defs>
    <clipPath id="clip980832256">
      <rect height="1476" width="1480" x="10" y="10"/>
    </clipPath>
  </defs>
  <rect height="1500" style="fill:rgb(0,0,0);stroke:none;" width="1500" x="0" y="0"/>
  <rect height="1476" style="fill:rgb(0,0,0);stroke:none;" width="1480" x="10" y="10"/>
  <rect height="1476" style="fill:none;stroke:rgb(130,130,130);stroke-miterlimit:10;stroke-linejoin:bevel;stroke-dasharray:3,0;" width="1480" x="10" y="10"/>
  <g clip-path="url(#clip980832256)">
    <ellipse cx="1430.8000000000002" cy="1426.96" rx="4" ry="4" style="fill:rgb(255,255,255);stroke:none;"/>
    <line style="fill:none;stroke:rgb(255,255,255);stroke-width:2;stroke-miterlimit:10;stroke-linecap:round;" x1="1430.8000000000002" x2="1402.0629705510419" y1="1426.96" y2="1398.8449835494819"/>
    <ellipse cx="1402.0629705510419" cy="1398.8449835494819" rx="4" ry="4" style="fill:rgb(255,255,255);stroke:none;"/>
    <line style="fill:none;stroke:rgb(255,255,255);stroke-width:2;stroke-miterlimit:10;stroke-linecap:round;" x1="1402.0629705510419" x2="1373.3260569035301" y1="1398.8449835494819" y2="1370.7256148158071"/>
    <ellipse cx="1373.3260569035301" cy="1370.7256148158071" rx="4" ry="4" style="fill:rgb(255,255,255);stroke:none;"/>
    <line style="fill:none;stroke:rgb(255,255,255);stroke-width:2;stroke-miterlimit:10;stroke-linecap:round;" x1="1373.3260569035301" x2="1344.5894346644059" y1="1370.7256148158071" y2="1342.6015519106434"/>
    <ellipse cx="1344.5894346644059" cy="1342.6015519106434" rx="4" ry="4" style="fill:rgb(255,255,255);stroke:none;"/>
    <line style="fill:none;stroke:rgb(255,255,255);stroke-width:2;stroke-miterlimit:10;stroke-linecap:round;" x1="1344.5894346644059" x2="1315.8533191416932" y1="1342.6015519106434" y2="1314.472421041432"/>
    <ellipse cx="1315.8533191416932" cy="1314.472421041432" rx="4" ry="4" style="fill:rgb(255,255,255);stroke:none;"/>
    <line style="fill:none;stroke:rgb(255,255,255);stroke-width:2;stroke-miterlimit:10;stroke-linecap:round;" x1="1315.8533191416932" x2="1287.1179720545247" y1="1314.472421041432" y2="1286.3378115776989"/>
    <ellipse cx="1287.1179720545247" cy="1286.3378115776989" rx="4" ry="4" style="fill:rgb(255,255,255);stroke:none;"/>
    <line style="fill:none;stroke:rgb(255,255,255);stroke-width:2;stroke-miterlimit:10;stroke-linecap:round;" x1="1287.1179720545247" x2="1258.3837159122054" y1="1286.3378115776989" y2="1258.197276713809"/>
    <ellipse cx="1258.3837159122054" cy="1258.197276713809" rx="4" ry="4" style="fill:rgb(255,255,255);stroke:none;"/>
    <line style="fill:none;stroke:rgb(255,255,255);stroke-width:2;stroke-miterlimit:10;stroke-linecap:round;" x1="1258.3837159122054" x2="1229.6509448813053" y1="1258.197276713809" y2="1230.0503285471855"/>
    <ellipse cx="1229.6509448813053" cy="1230.0503285471855" rx="4" ry="4" style="fill:rgb(255,255,255);stroke:none;"/>
    <line style="fill:none;stroke:rgb(255,255,255);stroke-width:2;stroke-miterlimit:10;stroke-linecap:round;" x1="1229.6509448813053" x2="1200.920138346552" y1="1230.0503285471855" y2="1201.8964334408033"/>
    <ellipse cx="1200.920138346552" cy="1201.8964334408033" rx="4" ry="4" style="fill:rgb(255,255,255);stroke:none;"/>
    <line style="fill:none;stroke:rgb(255,255,255);stroke-width:2;stroke-miterlimit:10;stroke-linecap:round;" x1="1200.920138346552" x2="1172.191883392767" y1="1201.8964334408033" y2="1173.7350136583318"/>
    <ellipse cx="1172.191883392767" cy="1173.7350136583318" rx="4" ry="4" style="fill:rgb(255,255,255);stroke:none;"/>
    <line style="fill:none;stroke:rgb(255,255,255);stroke-width:2;stroke-miterlimit:10;stroke-linecap:round;" x1="1172.191883392767" x2="1143.4668950736723" y1="1173.7350136583318" y2="1145.5654444196814"/>
    <ellipse cx="1143.4668950736723" cy="1145.5654444196814" rx="4" ry="4" style="fill:rgb(255,255,255);stroke:none;"/>
    <line style="fill:none;stroke:rgb(255,255,255);stroke-width:2;stroke-miterlimit:10;stroke-linecap:round;" x1="1143.4668950736723" x2="1114.7460405719416" y1="1145.5654444196814" y2="1117.3870527059057"/>
    <ellipse cx="1114.7460405719416" cy="1117.3870527059057" rx="4" ry="4" style="fill:rgb(255,255,255);stroke:none;"/>
    <line style="fill:none;stroke:rgb(255,255,255);stroke-width:2;stroke-miterlimit:10;stroke-linecap:round;" x1="1114.7460405719416" x2="1086.030373106405" y1="1117.3870527059057" y2="1089.1991244055853"/>
    <ellipse cx="1086.030373106405" cy="1089.1991244055853" rx="4" ry="4" style="fill:rgb(255,255,255);stroke:none;"/>
    <line style="fill:none;stroke:rgb(255,255,255);stroke-width:2;stroke-miterlimit:10;stroke-linecap:round;" x1="1086.030373106405" x2="1057.3211636404262" y1="1089.1991244055853" y2="1061.0009096906256"/>
    <ellipse cx="1057.3211636404262" cy="1061.0009096906256" rx="4" ry="4" style="fill:rgb(255,255,255);stroke:none;"/>
    <line style="fill:none;stroke:rgb(255,255,255);stroke-width:2;stroke-miterlimit:10;stroke-linecap:round;" x1="1057.3211636404262" x2="1028.6199349850688" y1="1061.0009096906256" y2="1032.7916338207024"/>
    <ellipse cx="1028.6199349850688" cy="1032.7916338207024" rx="4" ry="4" style="fill:rgb(255,255,255);stroke:none;"/>
    <line style="fill:none;stroke:rgb(255,255,255);stroke-width:2;stroke-miterlimit:10;stroke-linecap:round;" x1="1028.6199349850688" x2="999.928501630512" y1="1032.7916338207024" y2="1004.5705208587391"/>
    <ellipse cx="999.928501630512" cy="1004.5705208587391" rx="4" ry="4" style="fill:rgb(255,255,255);stroke:none;"/>
    <line style="fill:none;stroke:rgb(255,255,255);stroke-width:2;stroke-miterlimit:10;stroke-linecap:round;" x1="999.928501630512" x2="971.2489995190076" y1="1004.5705208587391" y2="976.3368208436223"/>
    <ellipse cx="971.2489995190076" cy="976.3368208436223" rx="4" ry="4" style="fill:rgb(255,255,255);stroke:none;"/>
    <line style="fill:none;stroke:rgb(255,255,255);stroke-width:2;stroke-miterlimit:10;stroke-linecap:round;" x1="971.2489995190076" x2="942.5839049834249" y1="976.3368208436223" y2="948.0898476692157"/>
    <ellipse cx="942.5839049834249" cy="948.0898476692157" rx="4" ry="4" style="fill:rgb(255,255,255);stroke:none;"/>
    <line style="fill:none;stroke:rgb(255,255,255);stroke-width:2;stroke-miterlimit:10;stroke-linecap:round;" x1="942.5839049834249" x2="913.936039493259" y1="948.0898476692157" y2="919.8290339456041"/>
    <ellipse cx="913.936039493259" cy="919.8290339456041" rx="4" ry="4" style="fill:rgb(255,255,255);stroke:none;"/>
    <line style="fill:none;stroke:rgb(255,255,255);stroke-width:2;stroke-miterlimit:10;stroke-linecap:round;" x1="913.936039493259" x2="885.3085374577084" y1="919.8290339456041" y2="891.5539901015787"/>
    <ellipse cx="885.3085374577084" cy="891.5539901015787" rx="4" ry="4" style="fill:rgb(255,255,255);stroke:none;"/>
    <line style="fill:none;stroke:rgb(255,255,255);stroke-width:2;stroke-miterlimit:10;stroke-linecap:round;" x1="885.3085374577084" x2="856.7047713326779" y1="891.5539901015787" y2="863.2645689331055"/>
    <ellipse cx="856.7047713326779" cy="863.2645689331055" rx="4" ry="4" style="fill:rgb(255,255,255);stroke:none;"/>
    <line style="fill:none;stroke:rgb(255,255,255);stroke-width:2;stroke-miterlimit:10;stroke-linecap:round;" x1="856.7047713326779" x2="828.1282314004543" y1="863.2645689331055" y2="834.9609329490485"/>
    <ellipse cx="828.1282314004543" cy="834.9609329490485" rx="4" ry="4" style="fill:rgb(255,255,255);stroke:none;"/>
    <line style="fill:none;stroke:rgb(255,255,255);stroke-width:2;stroke-miterlimit:10;stroke-linecap:round;" x1="828.1282314004543" x2="799.5823483724614" y1="834.9609329490485" y2="806.6436011966424"/>
    <ellipse cx="799.5823483724614" cy="806.6436011966424" rx="4" ry="4" style="fill:rgb(255,255,255);stroke:none;"/>
    <line style="fill:none;stroke:rgb(255,255,255);stroke-width:2;stroke-miterlimit:10;stroke-linecap:round;" x1="799.5823483724614" x2="771.070277043068" y1="806.6436011966424" y2="778.3134677895824"/>
    <ellipse cx="771.070277043068" cy="778.3134677895824" rx="4" ry="4" style="fill:rgb(255,255,255);stroke:none;"/>
    <line style="fill:none;stroke:rgb(255,255,255);stroke-width:2;stroke-miterlimit:10;stroke-linecap:round;" x1="771.070277043068" x2="742.5946736983391" y1="778.3134677895824" y2="749.9717868485195"/>
    <ellipse cx="742.5946736983391" cy="749.9717868485195" rx="4" ry="4" style="fill:rgb(255,255,255);stroke:none;"/>
    <line style="fill:none;stroke:rgb(255,255,255);stroke-width:2;stroke-miterlimit:10;stroke-linecap:round;" x1="742.5946736983391" x2="714.1574932009823" y1="749.9717868485195" y2="721.6201086156426"/>
    <ellipse cx="714.1574932009823" cy="721.6201086156426" rx="4" ry="4" style="fill:rgb(255,255,255);stroke:none;"/>
    <line style="fill:none;stroke:rgb(255,255,255);stroke-width:2;stroke-miterlimit:10;stroke-linecap:round;" x1="714.1574932009823" x2="685.7598491299401" y1="721.6201086156426" y2="693.2601787468146"/>
    <ellipse cx="685.7598491299401" cy="693.2601787468146" rx="4" ry="4" style="fill:rgb(255,255,255);stroke:none;"/>
    <line style="fill:none;stroke:rgb(255,255,255);stroke-width:2;stroke-miterlimit:10;stroke-linecap:round;" x1="685.7598491299401" x2="657.4019679139158" y1="693.2601787468146" y2="664.8938221024831"/>
    <ellipse cx="657.4019679139158" cy="664.8938221024831" rx="4" ry="4" style="fill:rgb(255,255,255);stroke:none;"/>
    <line style="fill:none;stroke:rgb(255,255,255);stroke-width:2;stroke-miterlimit:10;stroke-linecap:round;" x1="657.4019679139158" x2="629.0832296878511" y1="664.8938221024831" y2="636.522819571318"/>
    <ellipse cx="629.0832296878511" cy="636.522819571318" rx="4" ry="4" style="fill:rgb(255,255,255);stroke:none;"/>
    <line style="fill:none;stroke:rgb(255,255,255);stroke-width:2;stroke-miterlimit:10;stroke-linecap:round;" x1="629.0832296878511" x2="600.8022845595964" y1="636.522819571318" y2="608.1488010963694"/>
    <ellipse cx="600.8022845595964" cy="608.1488010963694" rx="4" ry="4" style="fill:rgb(255,255,255);stroke:none;"/>
    <line style="fill:none;stroke:rgb(255,255,255);stroke-width:2;stroke-miterlimit:10;stroke-linecap:round;" x1="600.8022845595964" x2="572.5572195049042" y1="608.1488010963694" y2="579.7731701280026"/>
    <ellipse cx="572.5572195049042" cy="579.7731701280026" rx="4" ry="4" style="fill:rgb(255,255,255);stroke:none;"/>
    <line style="fill:none;stroke:rgb(255,255,255);stroke-width:2;stroke-miterlimit:10;stroke-linecap:round;" x1="572.5572195049042" x2="544.3457316807812" y1="579.7731701280026" y2="551.3970471179617"/>
    <ellipse cx="544.3457316807812" cy="551.3970471179617" rx="4" ry="4" style="fill:rgb(255,255,255);stroke:none;"/>
    <line style="fill:none;stroke:rgb(255,255,255);stroke-width:2;stroke-miterlimit:10;stroke-linecap:round;" x1="544.3457316807812" x2="516.1652879054325" y1="551.3970471179617" y2="523.0212254200874"/>
    <ellipse cx="516.1652879054325" cy="523.0212254200874" rx="4" ry="4" style="fill:rgb(255,255,255);stroke:none;"/>
    <line style="fill:none;stroke:rgb(255,255,255);stroke-width:2;stroke-miterlimit:10;stroke-linecap:round;" x1="516.1652879054325" x2="488.0132631695278" y1="523.0212254200874" y2="494.64611728915224"/>
    <ellipse cx="488.0132631695278" cy="494.64611728915224" rx="4" ry="4" style="fill:rgb(255,255,255);stroke:none;"/>
    <line style="fill:none;stroke:rgb(255,255,255);stroke-width:2;stroke-miterlimit:10;stroke-linecap:round;" x1="488.0132631695278" x2="459.8870603246577" y1="494.64611728915224" y2="466.2716131918513"/>
    <ellipse cx="459.8870603246577" cy="466.2716131918513" rx="4" ry="4" style="fill:rgb(255,255,255);stroke:none;"/>
    <line style="fill:none;stroke:rgb(255,255,255);stroke-width:2;stroke-miterlimit:10;stroke-linecap:round;" x1="459.8870603246577" x2="431.7843433441478" y1="466.2716131918513" y2="437.896665019618"/>
    <ellipse cx="431.7843433441478" cy="437.896665019618" rx="4" ry="4" style="fill:rgb(255,255,255);stroke:none;"/>
    <line style="fill:none;stroke:rgb(255,255,255);stroke-width:2;stroke-miterlimit:10;stroke-linecap:round;" x1="431.7843433441478" x2="403.7044057674319" y1="437.896665019618" y2="409.51788850021535"/>
    <ellipse cx="403.7044057674319" cy="409.51788850021535" rx="4" ry="4" style="fill:rgb(255,255,255);stroke:none;"/>
    <line style="fill:none;stroke:rgb(255,255,255);stroke-width:2;stroke-miterlimit:10;stroke-linecap:round;" x1="403.7044057674319" x2="375.65942228052205" y1="409.51788850021535" y2="381.12660235995554"/>
    <ellipse cx="375.65942228052205" cy="381.12660235995554" rx="4" ry="4" style="fill:rgb(255,255,255);stroke:none;"/>
    <line style="fill:none;stroke:rgb(255,255,255);stroke-width:2;stroke-miterlimit:10;stroke-linecap:round;" x1="375.65942228052205" x2="347.6860673657049" y1="381.12660235995554" y2="352.72600279922904"/>
    <ellipse cx="347.6860673657049" cy="352.72600279922904" rx="4" ry="4" style="fill:rgb(255,255,255);stroke:none;"/>
    <line style="fill:none;stroke:rgb(255,255,255);stroke-width:2;stroke-miterlimit:10;stroke-linecap:round;" x1="347.6860673657049" x2="319.7655622627766" y1="352.72600279922904" y2="324.33373323851106"/>
    <ellipse cx="319.7655622627766" cy="324.33373323851106" rx="4" ry="4" style="fill:rgb(255,255,255);stroke:none;"/>
    <line style="fill:none;stroke:rgb(255,255,255);stroke-width:2;stroke-miterlimit:10;stroke-linecap:round;" x1="319.7655622627766" x2="291.8718213520921" y1="324.33373323851106" y2="295.9496925346132"/>
    <ellipse cx="291.8718213520921" cy="295.9496925346132" rx="4" ry="4" style="fill:rgb(255,255,255);stroke:none;"/>
    <line style="fill:none;stroke:rgb(255,255,255);stroke-width:2;stroke-miterlimit:10;stroke-linecap:round;" x1="291.8718213520921" x2="263.9964611634683" y1="295.9496925346132" y2="267.57179209981496"/>
    <ellipse cx="263.9964611634683" cy="267.57179209981496" rx="4" ry="4" style="fill:rgb(255,255,255);stroke:none;"/>
    <line style="fill:none;stroke:rgb(255,255,255);stroke-width:2;stroke-miterlimit:10;stroke-linecap:round;" x1="263.9964611634683" x2="236.13596492889891" y1="267.57179209981496" y2="239.19888673469245"/>
    <ellipse cx="236.13596492889891" cy="239.19888673469245" rx="4" ry="4" style="fill:rgb(255,255,255);stroke:none;"/>
    <line style="fill:none;stroke:rgb(255,255,255);stroke-width:2;stroke-miterlimit:10;stroke-linecap:round;" x1="236.13596492889891" x2="208.28827463234845" y1="239.19888673469245" y2="210.83031093053137"/>
    <ellipse cx="208.28827463234845" cy="210.83031093053137" rx="4" ry="4" style="fill:rgb(255,255,255);stroke:none;"/>
    <line style="fill:none;stroke:rgb(255,255,255);stroke-width:2;stroke-miterlimit:10;stroke-linecap:round;" x1="208.28827463234845" x2="180.45193348202145" y1="210.83031093053137" y2="182.46562063113652"/>
    <ellipse cx="180.45193348202145" cy="182.46562063113652" rx="4" ry="4" style="fill:rgb(255,255,255);stroke:none;"/>
    <line style="fill:none;stroke:rgb(255,255,255);stroke-width:2;stroke-miterlimit:10;stroke-linecap:round;" x1="180.45193348202145" x2="152.625805174145" y1="182.46562063113652" y2="154.10448830858627"/>
    <ellipse cx="152.625805174145" cy="154.10448830858627" rx="4" ry="4" style="fill:rgb(255,255,255);stroke:none;"/>
    <line style="fill:none;stroke:rgb(255,255,255);stroke-width:2;stroke-miterlimit:10;stroke-linecap:round;" x1="152.625805174145" x2="124.80895343058023" y1="154.10448830858627" y2="125.74665158032849"/>
    <ellipse cx="124.80895343058023" cy="125.74665158032849" rx="4" ry="4" style="fill:rgb(255,255,255);stroke:none;"/>
    <line style="fill:none;stroke:rgb(255,255,255);stroke-width:2;stroke-miterlimit:10;stroke-linecap:round;" x1="124.80895343058023" x2="97.00058109194822" y1="125.74665158032849" y2="97.39188683561406"/>
    <ellipse cx="97.00058109194822" cy="97.39188683561406" rx="4" ry="4" style="fill:rgb(255,255,255);stroke:none;"/>
    <line style="fill:none;stroke:rgb(255,255,255);stroke-width:2;stroke-miterlimit:10;stroke-linecap:round;" x1="97.00058109194822" x2="69.19999999999993" y1="97.39188683561406" y2="69.03999999999996"/>
    <ellipse cx="69.19999999999993" cy="69.03999999999996" rx="4" ry="4" style="fill:rgb(255,255,255);stroke:none;"/>
    <ellipse cx="1387.9947446569272" cy="582.7569561447093" rx="9" ry="9" style="fill:rgb(0,0,255);stroke:none;"/>
  </g>
  <g transform="translate(1365.640869140625 1436.671875)">
    <path d="M10.625,-2.671875 L10.625,-0 L0.515625,-0 Q0.6875,-1.515625 1.5,-2.875 Q2.328125,-4.234375 4.75,-6.484375 Q6.703125,-8.296875 7.140625,-8.9375 Q7.734375,-9.828125 7.734375,-10.703125 Q7.734375,-11.671875 7.21875,-12.1875 Q6.703125,-12.703125 5.78125,-12.703125 Q4.875,-12.703125 4.34375,-12.15625 Q3.8125,-11.625 3.734375,-10.359375 L0.859375,-10.640625 Q1.125,-13.015625 2.46875,-14.046875 Q3.828125,-15.09375 5.859375,-15.09375 Q8.078125,-15.09375 9.34375,-13.890625 Q10.625,-12.6875 10.625,-10.90625 Q10.625,-9.890625 10.25,-8.96875 Q9.890625,-8.0625 9.109375,-7.0625 Q8.578125,-6.390625 7.21875,-5.140625 Q5.859375,-3.890625 5.484375,-3.46875 Q5.125,-3.0625 4.90625,-2.671875 L10.625,-2.671875 Z M17.44482421875,-15.09375 Q19.63232421875,-15.09375 20.85107421875,-13.53125 Q22.31982421875,-11.6875 22.31982421875,-7.40625 Q22.31982421875,-3.140625 20.85107421875,-1.28125 Q19.63232421875,0.25 17.44482421875,0.25 Q15.24169921875,0.25 13.89794921875,-1.4375 Q12.55419921875,-3.125 12.55419921875,-7.4375 Q12.55419921875,-11.6875 14.03857421875,-13.5625 Q15.25732421875,-15.09375 17.44482421875,-15.09375 Z M17.44482421875,-12.703125 Q16.91357421875,-12.703125 16.50732421875,-12.359375 Q16.10107421875,-12.03125 15.86669921875,-11.171875 Q15.56982421875,-10.0625 15.56982421875,-7.40625 Q15.56982421875,-4.765625 15.83544921875,-3.78125 Q16.11669921875,-2.796875 16.50732421875,-2.46875 Q16.91357421875,-2.140625 17.44482421875,-2.140625 Q17.96044921875,-2.140625 18.36669921875,-2.46875 Q18.78857421875,-2.796875 19.00732421875,-3.65625 Q19.30419921875,-4.765625 19.30419921875,-7.40625 Q19.30419921875,-10.0625 19.03857421875,-11.046875 Q18.77294921875,-12.03125 18.36669921875,-12.359375 Q17.96044921875,-12.703125 17.44482421875,-12.703125 Z M25.4208984375,-8.015625 L25.4208984375,-10.890625 L28.2958984375,-10.890625 L28.2958984375,-8.015625 L25.4208984375,-8.015625 Z M25.4208984375,0 L25.4208984375,-2.875 L28.2958984375,-2.875 L28.2958984375,0 L25.4208984375,0 Z M40.9765625,-2.671875 L40.9765625,0 L30.8671875,0 Q31.0390625,-1.515625 31.8515625,-2.875 Q32.6796875,-4.234375 35.1015625,-6.484375 Q37.0546875,-8.296875 37.4921875,-8.9375 Q38.0859375,-9.828125 38.0859375,-10.703125 Q38.0859375,-11.671875 37.5703125,-12.1875 Q37.0546875,-12.703125 36.1328125,-12.703125 Q35.2265625,-12.703125 34.6953125,-12.15625 Q34.1640625,-11.625 34.0859375,-10.359375 L31.2109375,-10.640625 Q31.4765625,-13.015625 32.8203125,-14.046875 Q34.1796875,-15.09375 36.2109375,-15.09375 Q38.4296875,-15.09375 39.6953125,-13.890625 Q40.9765625,-12.6875 40.9765625,-10.90625 Q40.9765625,-9.890625 40.6015625,-8.96875 Q40.2421875,-8.0625 39.4609375,-7.0625 Q38.9296875,-6.390625 37.5703125,-5.140625 Q36.2109375,-3.890625 35.8359375,-3.46875 Q35.4765625,-3.0625 35.2578125,-2.671875 L40.9765625,-2.671875 Z M48.57763671875,0 L48.57763671875,-3.03125 L42.42138671875,-3.03125 L42.42138671875,-5.546875 L48.93701171875,-15.09375 L51.35888671875,-15.09375 L51.35888671875,-5.5625 L53.23388671875,-5.5625 L53.23388671875,-3.03125 L51.35888671875,-3.03125 L51.35888671875,0 L48.57763671875,0 Z M48.57763671875,-5.5625 L48.57763671875,-10.6875 L45.12451171875,-5.5625 L48.57763671875,-5.5625 Z" style="fill:rgb(247,109,2);stroke:none;"/>
  </g>
  <g transform="translate(1307.640869140625 1379.546875)">
    <path d="M10.625,-2.671875 L10.625,-0 L0.515625,-0 Q0.6875,-1.515625 1.5,-2.875 Q2.328125,-4.234375 4.75,-6.484375 Q6.703125,-8.296875 7.140625,-8.9375 Q7.734375,-9.828125 7.734375,-10.703125 Q7.734375,-11.671875 7.21875,-12.1875 Q6.703125,-12.703125 5.78125,-12.703125 Q4.875,-12.703125 4.34375,-12.15625 Q3.8125,-11.625 3.734375,-10.359375 L0.859375,-10.640625 Q1.125,-13.015625 2.46875,-14.046875 Q3.828125,-15.09375 5.859375,-15.09375 Q8.078125,-15.09375 9.34375,-13.890625 Q10.625,-12.6875 10.625,-10.90625 Q10.625,-9.890625 10.25,-8.96875 Q9.890625,-8.0625 9.109375,-7.0625 Q8.578125,-6.390625 7.21875,-5.140625 Q5.859375,-3.890625 5.484375,-3.46875 Q5.125,-3.0625 4.90625,-2.671875 L10.625,-2.671875 Z M19.94482421875,0 L17.06982421875,0 L17.06982421875,-10.859375 Q15.47607421875,-9.375 13.33544921875,-8.671875 L13.33544921875,-11.296875 Q14.47607421875,-11.65625 15.78857421875,-12.6875 Q17.11669921875,-13.71875 17.60107421875,-15.09375 L19.94482421875,-15.09375 L19.94482421875,0 Z M25.4208984375,-8.015625 L25.4208984375,-10.890625 L28.2958984375,-10.890625 L28.2958984375,-8.015625 L25.4208984375,-8.015625 Z M25.4208984375,0 L25.4208984375,-2.875 L28.2958984375,-2.875 L28.2958984375,0 L25.4208984375,0 Z M40.9765625,-2.671875 L40.9765625,0 L30.8671875,0 Q31.0390625,-1.515625 31.8515625,-2.875 Q32.6796875,-4.234375 35.1015625,-6.484375 Q37.0546875,-8.296875 37.4921875,-8.9375 Q38.0859375,-9.828125 38.0859375,-10.703125 Q38.0859375,-11.671875 37.5703125,-12.1875 Q37.0546875,-12.703125 36.1328125,-12.703125 Q35.2265625,-12.703125 34.6953125,-12.15625 Q34.1640625,-11.625 34.0859375,-10.359375 L31.2109375,-10.640625 Q31.4765625,-13.015625 32.8203125,-14.046875 Q34.1796875,-15.09375 36.2109375,-15.09375 Q38.4296875,-15.09375 39.6953125,-13.890625 Q40.9765625,-12.6875 40.9765625,-10.90625 Q40.9765625,-9.890625 40.6015625,-8.96875 Q40.2421875,-8.0625 39.4609375,-7.0625 Q38.9296875,-6.390625 37.5703125,-5.140625 Q36.2109375,-3.890625 35.8359375,-3.46875 Q35.4765625,-3.0625 35.2578125,-2.671875 L40.9765625,-2.671875 Z M48.57763671875,0 L48.57763671875,-3.03125 L42.42138671875,-3.03125 L42.42138671875,-5.546875 L48.93701171875,-15.09375 L51.35888671875,-15.09375 L51.35888671875,-5.5625 L53.23388671875,-5.5625 L53.23388671875,-3.03125 L51.35888671875,-3.03125 L51.35888671875,0 L48.57763671875,0 Z M48.57763671875,-5.5625 L48.57763671875,-10.6875 L45.12451171875,-5.5625 L48.57763671875,-5.5625 Z" style="fill:rgb(247,109,2);stroke:none;"/>
  </g>
  <g transform="translate(1250.640869140625 1323.546875)">
    <path d="M10.625,-2.671875 L10.625,-0 L0.515625,-0 Q0.6875,-1.515625 1.5,-2.875 Q2.328125,-4.234375 4.75,-6.484375 Q6.703125,-8.296875 7.140625,-8.9375 Q7.734375,-9.828125 7.734375,-10.703125 Q7.734375,-11.671875 7.21875,-12.1875 Q6.703125,-12.703125 5.78125,-12.703125 Q4.875,-12.703125 4.34375,-12.15625 Q3.8125,-11.625 3.734375,-10.359375 L0.859375,-10.640625 Q1.125,-13.015625 2.46875,-14.046875 Q3.828125,-15.09375 5.859375,-15.09375 Q8.078125,-15.09375 9.34375,-13.890625 Q10.625,-12.6875 10.625,-10.90625 Q10.625,-9.890625 10.25,-8.96875 Q9.890625,-8.0625 9.109375,-7.0625 Q8.578125,-6.390625 7.21875,-5.140625 Q5.859375,-3.890625 5.484375,-3.46875 Q5.125,-3.0625 4.90625,-2.671875 L10.625,-2.671875 Z M22.30419921875,-2.671875 L22.30419921875,0 L12.19482421875,0 Q12.36669921875,-1.515625 13.17919921875,-2.875 Q14.00732421875,-4.234375 16.42919921875,-6.484375 Q18.38232421875,-8.296875 18.81982421875,-8.9375 Q19.41357421875,-9.828125 19.41357421875,-10.703125 Q19.41357421875,-11.671875 18.89794921875,-12.1875 Q18.38232421875,-12.703125 17.46044921875,-12.703125 Q16.55419921875,-12.703125 16.02294921875,-12.15625 Q15.49169921875,-11.625 15.41357421875,-10.359375 L12.53857421875,-10.640625 Q12.80419921875,-13.015625 14.14794921875,-14.046875 Q15.50732421875,-15.09375 17.53857421875,-15.09375 Q19.75732421875,-15.09375 21.02294921875,-13.890625 Q22.30419921875,-12.6875 22.30419921875,-10.90625 Q22.30419921875,-9.890625 21.92919921875,-8.96875 Q21.56982421875,-8.0625 20.78857421875,-7.0625 Q20.25732421875,-6.390625 18.89794921875,-5.140625 Q17.53857421875,-3.890625 17.16357421875,-3.46875 Q16.80419921875,-3.0625 16.58544921875,-2.671875 L22.30419921875,-2.671875 Z M25.4208984375,-8.015625 L25.4208984375,-10.890625 L28.2958984375,-10.890625 L28.2958984375,-8.015625 L25.4208984375,-8.015625 Z M25.4208984375,0 L25.4208984375,-2.875 L28.2958984375,-2.875 L28.2958984375,0 L25.4208984375,0 Z M40.9765625,-2.671875 L40.9765625,0 L30.8671875,0 Q31.0390625,-1.515625 31.8515625,-2.875 Q32.6796875,-4.234375 35.1015625,-6.484375 Q37.0546875,-8.296875 37.4921875,-8.9375 Q38.0859375,-9.828125 38.0859375,-10.703125 Q38.0859375,-11.671875 37.5703125,-12.1875 Q37.0546875,-12.703125 36.1328125,-12.703125 Q35.2265625,-12.703125 34.6953125,-12.15625 Q34.1640625,-11.625 34.0859375,-10.359375 L31.2109375,-10.640625 Q31.4765625,-13.015625 32.8203125,-14.046875 Q34.1796875,-15.09375 36.2109375,-15.09375 Q38.4296875,-15.09375 39.6953125,-13.890625 Q40.9765625,-12.6875 40.9765625,-10.90625 Q40.9765625,-9.890625 40.6015625,-8.96875 Q40.2421875,-8.0625 39.4609375,-7.0625 Q38.9296875,-6.390625 37.5703125,-5.140625 Q36.2109375,-3.890625 35.8359375,-3.46875 Q35.4765625,-3.0625 35.2578125,-2.671875 L40.9765625,-2.671875 Z M48.57763671875,0 L48.57763671875,-3.03125 L42.42138671875,-3.03125 L42.42138671875,-5.546875 L48.93701171875,-15.09375 L51.35888671875,-15.09375 L51.35888671875,-5.5625 L53.23388671875,-5.5625 L53.23388671875,-3.03125 L51.35888671875,-3.03125 L51.35888671875,0 L48.57763671875,0 Z M48.57763671875,-5.5625 L48.57763671875,-10.6875 L45.12451171875,-5.5625 L48.57763671875,-5.5625 Z" style="fill:rgb(247,109,2);stroke:none;"/>
  </g>
  <g transform="translate(1192.640869140625 1267.671875)">
    <path d="M10.625,-2.671875 L10.625,-0 L0.515625,-0 Q0.6875,-1.515625 1.5,-2.875 Q2.328125,-4.234375 4.75,-6.484375 Q6.703125,-8.296875 7.140625,-8.9375 Q7.734375,-9.828125 7.734375,-10.703125 Q7.734375,-11.671875 7.21875,-12.1875 Q6.703125,-12.703125 5.78125,-12.703125 Q4.875,-12.703125 4.34375,-12.15625 Q3.8125,-11.625 3.734375,-10.359375 L0.859375,-10.640625 Q1.125,-13.015625 2.46875,-14.046875 Q3.828125,-15.09375 5.859375,-15.09375 Q8.078125,-15.09375 9.34375,-13.890625 Q10.625,-12.6875 10.625,-10.90625 Q10.625,-9.890625 10.25,-8.96875 Q9.890625,-8.0625 9.109375,-7.0625 Q8.578125,-6.390625 7.21875,-5.140625 Q5.859375,-3.890625 5.484375,-3.46875 Q5.125,-3.0625 4.90625,-2.671875 L10.625,-2.671875 Z M12.47607421875,-3.984375 L15.25732421875,-4.328125 Q15.39794921875,-3.265625 15.97607421875,-2.703125 Q16.55419921875,-2.140625 17.39794921875,-2.140625 Q18.28857421875,-2.140625 18.89794921875,-2.8125 Q19.50732421875,-3.484375 19.50732421875,-4.640625 Q19.50732421875,-5.71875 18.91357421875,-6.359375 Q18.33544921875,-7 17.49169921875,-7 Q16.94482421875,-7 16.16357421875,-6.78125 L16.49169921875,-9.125 Q17.66357421875,-9.09375 18.27294921875,-9.625 Q18.88232421875,-10.171875 18.88232421875,-11.0625 Q18.88232421875,-11.828125 18.42919921875,-12.265625 Q17.99169921875,-12.71875 17.24169921875,-12.71875 Q16.49169921875,-12.71875 15.97607421875,-12.203125 Q15.46044921875,-11.703125 15.33544921875,-10.71875 L12.67919921875,-11.171875 Q12.96044921875,-12.53125 13.52294921875,-13.34375 Q14.08544921875,-14.15625 15.08544921875,-14.625 Q16.08544921875,-15.09375 17.31982421875,-15.09375 Q19.44482421875,-15.09375 20.72607421875,-13.734375 Q21.77294921875,-12.640625 21.77294921875,-11.234375 Q21.77294921875,-9.265625 19.61669921875,-8.078125 Q20.91357421875,-7.796875 21.67919921875,-6.828125 Q22.46044921875,-5.875 22.46044921875,-4.515625 Q22.46044921875,-2.53125 21.00732421875,-1.140625 Q19.56982421875,0.25 17.41357421875,0.25 Q15.36669921875,0.25 14.02294921875,-0.921875 Q12.67919921875,-2.09375 12.47607421875,-3.984375 Z M25.4208984375,-8.015625 L25.4208984375,-10.890625 L28.2958984375,-10.890625 L28.2958984375,-8.015625 L25.4208984375,-8.015625 Z M25.4208984375,0 L25.4208984375,-2.875 L28.2958984375,-2.875 L28.2958984375,0 L25.4208984375,0 Z M40.9765625,-2.671875 L40.9765625,0 L30.8671875,0 Q31.0390625,-1.515625 31.8515625,-2.875 Q32.6796875,-4.234375 35.1015625,-6.484375 Q37.0546875,-8.296875 37.4921875,-8.9375 Q38.0859375,-9.828125 38.0859375,-10.703125 Q38.0859375,-11.671875 37.5703125,-12.1875 Q37.0546875,-12.703125 36.1328125,-12.703125 Q35.2265625,-12.703125 34.6953125,-12.15625 Q34.1640625,-11.625 34.0859375,-10.359375 L31.2109375,-10.640625 Q31.4765625,-13.015625 32.8203125,-14.046875 Q34.1796875,-15.09375 36.2109375,-15.09375 Q38.4296875,-15.09375 39.6953125,-13.890625 Q40.9765625,-12.6875 40.9765625,-10.90625 Q40.9765625,-9.890625 40.6015625,-8.96875 Q40.2421875,-8.0625 39.4609375,-7.0625 Q38.9296875,-6.390625 37.5703125,-5.140625 Q36.2109375,-3.890625 35.8359375,-3.46875 Q35.4765625,-3.0625 35.2578125,-2.671875 L40.9765625,-2.671875 Z M48.57763671875,0 L48.57763671875,-3.03125 L42.42138671875,-3.03125 L42.42138671875,-5.546875 L48.93701171875,-15.09375 L51.35888671875,-15.09375 L51.35888671875,-5.5625 L53.23388671875,-5.5625 L53.23388671875,-3.03125 L51.35888671875,-3.03125 L51.35888671875,0 L48.57763671875,0 Z M48.57763671875,-5.5625 L48.57763671875,-10.6875 L45.12451171875,-5.5625 L48.57763671875,-5.5625 Z" style="fill:rgb(247,109,2);stroke:none;"/>
  </g>
  <g transform="translate(1135.820556640625 1210.671875)">
    <path d="M5.765625,-15.09375 Q7.953125,-15.09375 9.171875,-13.53125 Q10.640625,-11.6875 10.640625,-7.40625 Q10.640625,-3.140625 9.171875,-1.28125 Q7.953125,0.25 5.765625,0.25 Q3.5625,0.25 2.21875,-1.4375 Q0.875,-3.125 0.875,-7.4375 Q0.875,-11.6875 2.359375,-13.5625 Q3.578125,-15.09375 5.765625,-15.09375 Z M5.765625,-12.703125 Q5.234375,-12.703125 4.828125,-12.359375 Q4.421875,-12.03125 4.1875,-11.171875 Q3.890625,-10.0625 3.890625,-7.40625 Q3.890625,-4.765625 4.15625,-3.78125 Q4.4375,-2.796875 4.828125,-2.46875 Q5.234375,-2.140625 5.765625,-2.140625 Q6.28125,-2.140625 6.6875,-2.46875 Q7.109375,-2.796875 7.328125,-3.65625 Q7.625,-4.765625 7.625,-7.40625 Q7.625,-10.0625 7.359375,-11.046875 Q7.09375,-12.03125 6.6875,-12.359375 Q6.28125,-12.703125 5.765625,-12.703125 Z M17.44482421875,-15.09375 Q19.63232421875,-15.09375 20.85107421875,-13.53125 Q22.31982421875,-11.6875 22.31982421875,-7.40625 Q22.31982421875,-3.140625 20.85107421875,-1.28125 Q19.63232421875,0.25 17.44482421875,0.25 Q15.24169921875,0.25 13.89794921875,-1.4375 Q12.55419921875,-3.125 12.55419921875,-7.4375 Q12.55419921875,-11.6875 14.03857421875,-13.5625 Q15.25732421875,-15.09375 17.44482421875,-15.09375 Z M17.44482421875,-12.703125 Q16.91357421875,-12.703125 16.50732421875,-12.359375 Q16.10107421875,-12.03125 15.86669921875,-11.171875 Q15.56982421875,-10.0625 15.56982421875,-7.40625 Q15.56982421875,-4.765625 15.83544921875,-3.78125 Q16.11669921875,-2.796875 16.50732421875,-2.46875 Q16.91357421875,-2.140625 17.44482421875,-2.140625 Q17.96044921875,-2.140625 18.36669921875,-2.46875 Q18.78857421875,-2.796875 19.00732421875,-3.65625 Q19.30419921875,-4.765625 19.30419921875,-7.40625 Q19.30419921875,-10.0625 19.03857421875,-11.046875 Q18.77294921875,-12.03125 18.36669921875,-12.359375 Q17.96044921875,-12.703125 17.44482421875,-12.703125 Z M25.4208984375,-8.015625 L25.4208984375,-10.890625 L28.2958984375,-10.890625 L28.2958984375,-8.015625 L25.4208984375,-8.015625 Z M25.4208984375,0 L25.4208984375,-2.875 L28.2958984375,-2.875 L28.2958984375,0 L25.4208984375,0 Z M40.9765625,-2.671875 L40.9765625,0 L30.8671875,0 Q31.0390625,-1.515625 31.8515625,-2.875 Q32.6796875,-4.234375 35.1015625,-6.484375 Q37.0546875,-8.296875 37.4921875,-8.9375 Q38.0859375,-9.828125 38.0859375,-10.703125 Q38.0859375,-11.671875 37.5703125,-12.1875 Q37.0546875,-12.703125 36.1328125,-12.703125 Q35.2265625,-12.703125 34.6953125,-12.15625 Q34.1640625,-11.625 34.0859375,-10.359375 L31.2109375,-10.640625 Q31.4765625,-13.015625 32.8203125,-14.046875 Q34.1796875,-15.09375 36.2109375,-15.09375 Q38.4296875,-15.09375 39.6953125,-13.890625 Q40.9765625,-12.6875 40.9765625,-10.90625 Q40.9765625,-9.890625 40.6015625,-8.96875 Q40.2421875,-8.0625 39.4609375,-7.0625 Q38.9296875,-6.390625 37.5703125,-5.140625 Q36.2109375,-3.890625 35.8359375,-3.46875 Q35.4765625,-3.0625 35.2578125,-2.671875 L40.9765625,-2.671875 Z M48.57763671875,0 L48.57763671875,-3.03125 L42.42138671875,-3.03125 L42.42138671875,-5.546875 L48.93701171875,-15.09375 L51.35888671875,-15.09375 L51.35888671875,-5.5625 L53.23388671875,-5.5625 L53.23388671875,-3.03125 L51.35888671875,-3.03125 L51.35888671875,0 L48.57763671875,0 Z M48.57763671875,-5.5625 L48.57763671875,-10.6875 L45.12451171875,-5.5625 L48.57763671875,-5.5625 Z" style="fill:rgb(247,109,2);stroke:none;"/>
  </g>
  <g transform="translate(1077.820556640625 1154.671875)">
    <path d="M5.765625,-15.09375 Q7.953125,-15.09375 9.171875,-13.53125 Q10.640625,-11.6875 10.640625,-7.40625 Q10.640625,-3.140625 9.171875,-1.28125 Q7.953125,0.25 5.765625,0.25 Q3.5625,0.25 2.21875,-1.4375 Q0.875,-3.125 0.875,-7.4375 Q0.875,-11.6875 2.359375,-13.5625 Q3.578125,-15.09375 5.765625,-15.09375 Z M5.765625,-12.703125 Q5.234375,-12.703125 4.828125,-12.359375 Q4.421875,-12.03125 4.1875,-11.171875 Q3.890625,-10.0625 3.890625,-7.40625 Q3.890625,-4.765625 4.15625,-3.78125 Q4.4375,-2.796875 4.828125,-2.46875 Q5.234375,-2.140625 5.765625,-2.140625 Q6.28125,-2.140625 6.6875,-2.46875 Q7.109375,-2.796875 7.328125,-3.65625 Q7.625,-4.765625 7.625,-7.40625 Q7.625,-10.0625 7.359375,-11.046875 Q7.09375,-12.03125 6.6875,-12.359375 Q6.28125,-12.703125 5.765625,-12.703125 Z M19.94482421875,0 L17.06982421875,0 L17.06982421875,-10.859375 Q15.47607421875,-9.375 13.33544921875,-8.671875 L13.33544921875,-11.296875 Q14.47607421875,-11.65625 15.78857421875,-12.6875 Q17.11669921875,-13.71875 17.60107421875,-15.09375 L19.94482421875,-15.09375 L19.94482421875,0 Z M25.4208984375,-8.015625 L25.4208984375,-10.890625 L28.2958984375,-10.890625 L28.2958984375,-8.015625 L25.4208984375,-8.015625 Z M25.4208984375,0 L25.4208984375,-2.875 L28.2958984375,-2.875 L28.2958984375,0 L25.4208984375,0 Z M40.9765625,-2.671875 L40.9765625,0 L30.8671875,0 Q31.0390625,-1.515625 31.8515625,-2.875 Q32.6796875,-4.234375 35.1015625,-6.484375 Q37.0546875,-8.296875 37.4921875,-8.9375 Q38.0859375,-9.828125 38.0859375,-10.703125 Q38.0859375,-11.671875 37.5703125,-12.1875 Q37.0546875,-12.703125 36.1328125,-12.703125 Q35.2265625,-12.703125 34.6953125,-12.15625 Q34.1640625,-11.625 34.0859375,-10.359375 L31.2109375,-10.640625 Q31.4765625,-13.015625 32.8203125,-14.046875 Q34.1796875,-15.09375 36.2109375,-15.09375 Q38.4296875,-15.09375 39.6953125,-13.890625 Q40.9765625,-12.6875 40.9765625,-10.90625 Q40.9765625,-9.890625 40.6015625,-8.96875 Q40.2421875,-8.0625 39.4609375,-7.0625 Q38.9296875,-6.390625 37.5703125,-5.140625 Q36.2109375,-3.890625 35.8359375,-3.46875 Q35.4765625,-3.0625 35.2578125,-2.671875 L40.9765625,-2.671875 Z M48.57763671875,0 L48.57763671875,-3.03125 L42.42138671875,-3.03125 L42.42138671875,-5.546875 L48.93701171875,-15.09375 L51.35888671875,-15.09375 L51.35888671875,-5.5625 L53.23388671875,-5.5625 L53.23388671875,-3.03125 L51.35888671875,-3.03125 L51.35888671875,0 L48.57763671875,0 Z M48.57763671875,-5.5625 L48.57763671875,-10.6875 L45.12451171875,-5.5625 L48.57763671875,-5.5625 Z" style="fill:rgb(247,109,2);stroke:none;"/>
  </g>
  <g transform="translate(1020.820556640625 1098.671875)">
    <path d="M5.765625,-15.09375 Q7.953125,-15.09375 9.171875,-13.53125 Q10.640625,-11.6875 10.640625,-7.40625 Q10.640625,-3.140625 9.171875,-1.28125 Q7.953125,0.25 5.765625,0.25 Q3.5625,0.25 2.21875,-1.4375 Q0.875,-3.125 0.875,-7.4375 Q0.875,-11.6875 2.359375,-13.5625 Q3.578125,-15.09375 5.765625,-15.09375 Z M5.765625,-12.703125 Q5.234375,-12.703125 4.828125,-12.359375 Q4.421875,-12.03125 4.1875,-11.171875 Q3.890625,-10.0625 3.890625,-7.40625 Q3.890625,-4.765625 4.15625,-3.78125 Q4.4375,-2.796875 4.828125,-2.46875 Q5.234375,-2.140625 5.765625,-2.140625 Q6.28125,-2.140625 6.6875,-2.46875 Q7.109375,-2.796875 7.328125,-3.65625 Q7.625,-4.765625 7.625,-7.40625 Q7.625,-10.0625 7.359375,-11.046875 Q7.09375,-12.03125 6.6875,-12.359375 Q6.28125,-12.703125 5.765625,-12.703125 Z M22.30419921875,-2.671875 L22.30419921875,0 L12.19482421875,0 Q12.36669921875,-1.515625 13.17919921875,-2.875 Q14.00732421875,-4.234375 16.42919921875,-6.484375 Q18.38232421875,-8.296875 18.81982421875,-8.9375 Q19.41357421875,-9.828125 19.41357421875,-10.703125 Q19.41357421875,-11.671875 18.89794921875,-12.1875 Q18.38232421875,-12.703125 17.46044921875,-12.703125 Q16.55419921875,-12.703125 16.02294921875,-12.15625 Q15.49169921875,-11.625 15.41357421875,-10.359375 L12.53857421875,-10.640625 Q12.80419921875,-13.015625 14.14794921875,-14.046875 Q15.50732421875,-15.09375 17.53857421875,-15.09375 Q19.75732421875,-15.09375 21.02294921875,-13.890625 Q22.30419921875,-12.6875 22.30419921875,-10.90625 Q22.30419921875,-9.890625 21.92919921875,-8.96875 Q21.56982421875,-8.0625 20.78857421875,-7.0625 Q20.25732421875,-6.390625 18.89794921875,-5.140625 Q17.53857421875,-3.890625 17.16357421875,-3.46875 Q16.80419921875,-3.0625 16.58544921875,-2.671875 L22.30419921875,-2.671875 Z M25.4208984375,-8.015625 L25.4208984375,-10.890625 L28.2958984375,-10.890625 L28.2958984375,-8.015625 L25.4208984375,-8.015625 Z M25.4208984375,0 L25.4208984375,-2.875 L28.2958984375,-2.875 L28.2958984375,0 L25.4208984375,0 Z M40.9765625,-2.671875 L40.9765625,0 L30.8671875,0 Q31.0390625,-1.515625 31.8515625,-2.875 Q32.6796875,-4.234375 35.1015625,-6.484375 Q37.0546875,-8.296875 37.4921875,-8.9375 Q38.0859375,-9.828125 38.0859375,-10.703125 Q38.0859375,-11.671875 37.5703125,-12.1875 Q37.0546875,-12.703125 36.1328125,-12.703125 Q35.2265625,-12.703125 34.6953125,-12.15625 Q34.1640625,-11.625 34.0859375,-10.359375 L31.2109375,-10.640625 Q31.4765625,-13.015625 32.8203125,-14.046875 Q34.1796875,-15.09375 36.2109375,-15.09375 Q38.4296875,-15.09375 39.6953125,-13.890625 Q40.9765625,-12.6875 40.9765625,-10.90625 Q40.9765625,-9.890625 40.6015625,-8.96875 Q40.2421875,-8.0625 39.4609375,-7.0625 Q38.9296875,-6.390625 37.5703125,-5.140625 Q36.2109375,-3.890625 35.8359375,-3.46875 Q35.4765625,-3.0625 35.2578125,-2.671875 L40.9765625,-2.671875 Z M48.57763671875,0 L48.57763671875,-3.03125 L42.42138671875,-3.03125 L42.42138671875,-5.546875 L48.93701171875,-15.09375 L51.35888671875,-15.09375 L51.35888671875,-5.5625 L53.23388671875,-5.5625 L53.23388671875,-3.03125 L51.35888671875,-3.03125 L51.35888671875,0 L48.57763671875,0 Z M48.57763671875,-5.5625 L48.57763671875,-10.6875 L45.12451171875,-5.5625 L48.57763671875,-5.5625 Z" style="fill:rgb(247,109,2);stroke:none;"/>
  </g>
  <g transform="translate(962.820556640625 1041.671875)">
    <path d="M5.765625,-15.09375 Q7.953125,-15.09375 9.171875,-13.53125 Q10.640625,-11.6875 10.640625,-7.40625 Q10.640625,-3.140625 9.171875,-1.28125 Q7.953125,0.25 5.765625,0.25 Q3.5625,0.25 2.21875,-1.4375 Q0.875,-3.125 0.875,-7.4375 Q0.875,-11.6875 2.359375,-13.5625 Q3.578125,-15.09375 5.765625,-15.09375 Z M5.765625,-12.703125 Q5.234375,-12.703125 4.828125,-12.359375 Q4.421875,-12.03125 4.1875,-11.171875 Q3.890625,-10.0625 3.890625,-7.40625 Q3.890625,-4.765625 4.15625,-3.78125 Q4.4375,-2.796875 4.828125,-2.46875 Q5.234375,-2.140625 5.765625,-2.140625 Q6.28125,-2.140625 6.6875,-2.46875 Q7.109375,-2.796875 7.328125,-3.65625 Q7.625,-4.765625 7.625,-7.40625 Q7.625,-10.0625 7.359375,-11.046875 Q7.09375,-12.03125 6.6875,-12.359375 Q6.28125,-12.703125 5.765625,-12.703125 Z M12.47607421875,-3.984375 L15.25732421875,-4.328125 Q15.39794921875,-3.265625 15.97607421875,-2.703125 Q16.55419921875,-2.140625 17.39794921875,-2.140625 Q18.28857421875,-2.140625 18.89794921875,-2.8125 Q19.50732421875,-3.484375 19.50732421875,-4.640625 Q19.50732421875,-5.71875 18.91357421875,-6.359375 Q18.33544921875,-7 17.49169921875,-7 Q16.94482421875,-7 16.16357421875,-6.78125 L16.49169921875,-9.125 Q17.66357421875,-9.09375 18.27294921875,-9.625 Q18.88232421875,-10.171875 18.88232421875,-11.0625 Q18.88232421875,-11.828125 18.42919921875,-12.265625 Q17.99169921875,-12.71875 17.24169921875,-12.71875 Q16.49169921875,-12.71875 15.97607421875,-12.203125 Q15.46044921875,-11.703125 15.33544921875,-10.71875 L12.67919921875,-11.171875 Q12.96044921875,-12.53125 13.52294921875,-13.34375 Q14.08544921875,-14.15625 15.08544921875,-14.625 Q16.08544921875,-15.09375 17.31982421875,-15.09375 Q19.44482421875,-15.09375 20.72607421875,-13.734375 Q21.77294921875,-12.640625 21.77294921875,-11.234375 Q21.77294921875,-9.265625 19.61669921875,-8.078125 Q20.91357421875,-7.796875 21.67919921875,-6.828125 Q22.46044921875,-5.875 22.46044921875,-4.515625 Q22.46044921875,-2.53125 21.00732421875,-1.140625 Q19.56982421875,0.25 17.41357421875,0.25 Q15.36669921875,0.25 14.02294921875,-0.921875 Q12.67919921875,-2.09375 12.47607421875,-3.984375 Z M25.4208984375,-8.015625 L25.4208984375,-10.890625 L28.2958984375,-10.890625 L28.2958984375,-8.015625 L25.4208984375,-8.015625 Z M25.4208984375,0 L25.4208984375,-2.875 L28.2958984375,-2.875 L28.2958984375,0 L25.4208984375,0 Z M40.9765625,-2.671875 L40.9765625,0 L30.8671875,0 Q31.0390625,-1.515625 31.8515625,-2.875 Q32.6796875,-4.234375 35.1015625,-6.484375 Q37.0546875,-8.296875 37.4921875,-8.9375 Q38.0859375,-9.828125 38.0859375,-10.703125 Q38.0859375,-11.671875 37.5703125,-12.1875 Q37.0546875,-12.703125 36.1328125,-12.703125 Q35.2265625,-12.703125 34.6953125,-12.15625 Q34.1640625,-11.625 34.0859375,-10.359375 L31.2109375,-10.640625 Q31.4765625,-13.015625 32.8203125,-14.046875 Q34.1796875,-15.09375 36.2109375,-15.09375 Q38.4296875,-15.09375 39.6953125,-13.890625 Q40.9765625,-12.6875 40.9765625,-10.90625 Q40.9765625,-9.890625 40.6015625,-8.96875 Q40.2421875,-8.0625 39.4609375,-7.0625 Q38.9296875,-6.390625 37.5703125,-5.140625 Q36.2109375,-3.890625 35.8359375,-3.46875 Q35.4765625,-3.0625 35.2578125,-2.671875 L40.9765625,-2.671875 Z M48.57763671875,0 L48.57763671875,-3.03125 L42.42138671875,-3.03125 L42.42138671875,-5.546875 L48.93701171875,-15.09375 L51.35888671875,-15.09375 L51.35888671875,-5.5625 L53.23388671875,-5.5625 L53.23388671875,-3.03125 L51.35888671875,-3.03125 L51.35888671875,0 L48.57763671875,0 Z M48.57763671875,-5.5625 L48.57763671875,-10.6875 L45.12451171875,-5.5625 L48.57763671875,-5.5625 Z" style="fill:rgb(247,109,2);stroke:none;"/>
  </g>
  <g transform="translate(905.820556640625 985.671875)">
    <path d="M5.765625,-15.09375 Q7.953125,-15.09375 9.171875,-13.53125 Q10.640625,-11.6875 10.640625,-7.40625 Q10.640625,-3.140625 9.171875,-1.28125 Q7.953125,0.25 5.765625,0.25 Q3.5625,0.25 2.21875,-1.4375 Q0.875,-3.125 0.875,-7.4375 Q0.875,-11.6875 2.359375,-13.5625 Q3.578125,-15.09375 5.765625,-15.09375 Z M5.765625,-12.703125 Q5.234375,-12.703125 4.828125,-12.359375 Q4.421875,-12.03125 4.1875,-11.171875 Q3.890625,-10.0625 3.890625,-7.40625 Q3.890625,-4.765625 4.15625,-3.78125 Q4.4375,-2.796875 4.828125,-2.46875 Q5.234375,-2.140625 5.765625,-2.140625 Q6.28125,-2.140625 6.6875,-2.46875 Q7.109375,-2.796875 7.328125,-3.65625 Q7.625,-4.765625 7.625,-7.40625 Q7.625,-10.0625 7.359375,-11.046875 Q7.09375,-12.03125 6.6875,-12.359375 Q6.28125,-12.703125 5.765625,-12.703125 Z M18.22607421875,0 L18.22607421875,-3.03125 L12.06982421875,-3.03125 L12.06982421875,-5.546875 L18.58544921875,-15.09375 L21.00732421875,-15.09375 L21.00732421875,-5.5625 L22.88232421875,-5.5625 L22.88232421875,-3.03125 L21.00732421875,-3.03125 L21.00732421875,0 L18.22607421875,0 Z M18.22607421875,-5.5625 L18.22607421875,-10.6875 L14.77294921875,-5.5625 L18.22607421875,-5.5625 Z M25.4208984375,-8.015625 L25.4208984375,-10.890625 L28.2958984375,-10.890625 L28.2958984375,-8.015625 L25.4208984375,-8.015625 Z M25.4208984375,0 L25.4208984375,-2.875 L28.2958984375,-2.875 L28.2958984375,0 L25.4208984375,0 Z M40.9765625,-2.671875 L40.9765625,0 L30.8671875,0 Q31.0390625,-1.515625 31.8515625,-2.875 Q32.6796875,-4.234375 35.1015625,-6.484375 Q37.0546875,-8.296875 37.4921875,-8.9375 Q38.0859375,-9.828125 38.0859375,-10.703125 Q38.0859375,-11.671875 37.5703125,-12.1875 Q37.0546875,-12.703125 36.1328125,-12.703125 Q35.2265625,-12.703125 34.6953125,-12.15625 Q34.1640625,-11.625 34.0859375,-10.359375 L31.2109375,-10.640625 Q31.4765625,-13.015625 32.8203125,-14.046875 Q34.1796875,-15.09375 36.2109375,-15.09375 Q38.4296875,-15.09375 39.6953125,-13.890625 Q40.9765625,-12.6875 40.9765625,-10.90625 Q40.9765625,-9.890625 40.6015625,-8.96875 Q40.2421875,-8.0625 39.4609375,-7.0625 Q38.9296875,-6.390625 37.5703125,-5.140625 Q36.2109375,-3.890625 35.8359375,-3.46875 Q35.4765625,-3.0625 35.2578125,-2.671875 L40.9765625,-2.671875 Z M48.57763671875,0 L48.57763671875,-3.03125 L42.42138671875,-3.03125 L42.42138671875,-5.546875 L48.93701171875,-15.09375 L51.35888671875,-15.09375 L51.35888671875,-5.5625 L53.23388671875,-5.5625 L53.23388671875,-3.03125 L51.35888671875,-3.03125 L51.35888671875,0 L48.57763671875,0 Z M48.57763671875,-5.5625 L48.57763671875,-10.6875 L45.12451171875,-5.5625 L48.57763671875,-5.5625 Z" style="fill:rgb(247,109,2);stroke:none;"/>
  </g>
  <g transform="translate(848.820556640625 928.671875)">
    <path d="M5.765625,-15.09375 Q7.953125,-15.09375 9.171875,-13.53125 Q10.640625,-11.6875 10.640625,-7.40625 Q10.640625,-3.140625 9.171875,-1.28125 Q7.953125,0.25 5.765625,0.25 Q3.5625,0.25 2.21875,-1.4375 Q0.875,-3.125 0.875,-7.4375 Q0.875,-11.6875 2.359375,-13.5625 Q3.578125,-15.09375 5.765625,-15.09375 Z M5.765625,-12.703125 Q5.234375,-12.703125 4.828125,-12.359375 Q4.421875,-12.03125 4.1875,-11.171875 Q3.890625,-10.0625 3.890625,-7.40625 Q3.890625,-4.765625 4.15625,-3.78125 Q4.4375,-2.796875 4.828125,-2.46875 Q5.234375,-2.140625 5.765625,-2.140625 Q6.28125,-2.140625 6.6875,-2.46875 Q7.109375,-2.796875 7.328125,-3.65625 Q7.625,-4.765625 7.625,-7.40625 Q7.625,-10.0625 7.359375,-11.046875 Q7.09375,-12.03125 6.6875,-12.359375 Q6.28125,-12.703125 5.765625,-12.703125 Z M12.61669921875,-3.859375 L15.47607421875,-4.15625 Q15.60107421875,-3.1875 16.21044921875,-2.609375 Q16.81982421875,-2.046875 17.60107421875,-2.046875 Q18.50732421875,-2.046875 19.13232421875,-2.78125 Q19.75732421875,-3.515625 19.75732421875,-5 Q19.75732421875,-6.375 19.13232421875,-7.0625 Q18.52294921875,-7.765625 17.52294921875,-7.765625 Q16.28857421875,-7.765625 15.30419921875,-6.671875 L12.96044921875,-7 L14.44482421875,-14.828125 L22.05419921875,-14.828125 L22.05419921875,-12.125 L16.61669921875,-12.125 L16.16357421875,-9.578125 Q17.13232421875,-10.0625 18.13232421875,-10.0625 Q20.05419921875,-10.0625 21.38232421875,-8.65625 Q22.72607421875,-7.265625 22.72607421875,-5.046875 Q22.72607421875,-3.1875 21.64794921875,-1.734375 Q20.17919921875,0.25 17.56982421875,0.25 Q15.49169921875,0.25 14.17919921875,-0.859375 Q12.86669921875,-1.984375 12.61669921875,-3.859375 Z M25.4208984375,-8.015625 L25.4208984375,-10.890625 L28.2958984375,-10.890625 L28.2958984375,-8.015625 L25.4208984375,-8.015625 Z M25.4208984375,0 L25.4208984375,-2.875 L28.2958984375,-2.875 L28.2958984375,0 L25.4208984375,0 Z M40.9765625,-2.671875 L40.9765625,0 L30.8671875,0 Q31.0390625,-1.515625 31.8515625,-2.875 Q32.6796875,-4.234375 35.1015625,-6.484375 Q37.0546875,-8.296875 37.4921875,-8.9375 Q38.0859375,-9.828125 38.0859375,-10.703125 Q38.0859375,-11.671875 37.5703125,-12.1875 Q37.0546875,-12.703125 36.1328125,-12.703125 Q35.2265625,-12.703125 34.6953125,-12.15625 Q34.1640625,-11.625 34.0859375,-10.359375 L31.2109375,-10.640625 Q31.4765625,-13.015625 32.8203125,-14.046875 Q34.1796875,-15.09375 36.2109375,-15.09375 Q38.4296875,-15.09375 39.6953125,-13.890625 Q40.9765625,-12.6875 40.9765625,-10.90625 Q40.9765625,-9.890625 40.6015625,-8.96875 Q40.2421875,-8.0625 39.4609375,-7.0625 Q38.9296875,-6.390625 37.5703125,-5.140625 Q36.2109375,-3.890625 35.8359375,-3.46875 Q35.4765625,-3.0625 35.2578125,-2.671875 L40.9765625,-2.671875 Z M48.57763671875,0 L48.57763671875,-3.03125 L42.42138671875,-3.03125 L42.42138671875,-5.546875 L48.93701171875,-15.09375 L51.35888671875,-15.09375 L51.35888671875,-5.5625 L53.23388671875,-5.5625 L53.23388671875,-3.03125 L51.35888671875,-3.03125 L51.35888671875,0 L48.57763671875,0 Z M48.57763671875,-5.5625 L48.57763671875,-10.6875 L45.12451171875,-5.5625 L48.57763671875,-5.5625 Z" style="fill:rgb(247,109,2);stroke:none;"/>
  </g>
  <g transform="translate(791.820556640625 872.671875)">
    <path d="M5.765625,-15.09375 Q7.953125,-15.09375 9.171875,-13.53125 Q10.640625,-11.6875 10.640625,-7.40625 Q10.640625,-3.140625 9.171875,-1.28125 Q7.953125,0.25 5.765625,0.25 Q3.5625,0.25 2.21875,-1.4375 Q0.875,-3.125 0.875,-7.4375 Q0.875,-11.6875 2.359375,-13.5625 Q3.578125,-15.09375 5.765625,-15.09375 Z M5.765625,-12.703125 Q5.234375,-12.703125 4.828125,-12.359375 Q4.421875,-12.03125 4.1875,-11.171875 Q3.890625,-10.0625 3.890625,-7.40625 Q3.890625,-4.765625 4.15625,-3.78125 Q4.4375,-2.796875 4.828125,-2.46875 Q5.234375,-2.140625 5.765625,-2.140625 Q6.28125,-2.140625 6.6875,-2.46875 Q7.109375,-2.796875 7.328125,-3.65625 Q7.625,-4.765625 7.625,-7.40625 Q7.625,-10.0625 7.359375,-11.046875 Q7.09375,-12.03125 6.6875,-12.359375 Q6.28125,-12.703125 5.765625,-12.703125 Z M22.33544921875,-11.34375 L19.53857421875,-11.046875 Q19.44482421875,-11.90625 19.00732421875,-12.3125 Q18.58544921875,-12.71875 17.89794921875,-12.71875 Q16.97607421875,-12.71875 16.35107421875,-11.890625 Q15.72607421875,-11.078125 15.55419921875,-8.484375 Q16.63232421875,-9.765625 18.22607421875,-9.765625 Q20.03857421875,-9.765625 21.31982421875,-8.390625 Q22.61669921875,-7.015625 22.61669921875,-4.84375 Q22.61669921875,-2.53125 21.25732421875,-1.140625 Q19.89794921875,0.25 17.77294921875,0.25 Q15.50732421875,0.25 14.03857421875,-1.515625 Q12.56982421875,-3.28125 12.56982421875,-7.3125 Q12.56982421875,-11.4375 14.10107421875,-13.265625 Q15.63232421875,-15.09375 18.06982421875,-15.09375 Q19.77294921875,-15.09375 20.89794921875,-14.125 Q22.02294921875,-13.171875 22.33544921875,-11.34375 Z M15.80419921875,-5.0625 Q15.80419921875,-3.65625 16.44482421875,-2.890625 Q17.10107421875,-2.140625 17.92919921875,-2.140625 Q18.72607421875,-2.140625 19.25732421875,-2.765625 Q19.78857421875,-3.390625 19.78857421875,-4.8125 Q19.78857421875,-6.28125 19.21044921875,-6.953125 Q18.64794921875,-7.640625 17.77294921875,-7.640625 Q16.94482421875,-7.640625 16.36669921875,-6.984375 Q15.80419921875,-6.34375 15.80419921875,-5.0625 Z M25.4208984375,-8.015625 L25.4208984375,-10.890625 L28.2958984375,-10.890625 L28.2958984375,-8.015625 L25.4208984375,-8.015625 Z M25.4208984375,0 L25.4208984375,-2.875 L28.2958984375,-2.875 L28.2958984375,0 L25.4208984375,0 Z M40.9765625,-2.671875 L40.9765625,0 L30.8671875,0 Q31.0390625,-1.515625 31.8515625,-2.875 Q32.6796875,-4.234375 35.1015625,-6.484375 Q37.0546875,-8.296875 37.4921875,-8.9375 Q38.0859375,-9.828125 38.0859375,-10.703125 Q38.0859375,-11.671875 37.5703125,-12.1875 Q37.0546875,-12.703125 36.1328125,-12.703125 Q35.2265625,-12.703125 34.6953125,-12.15625 Q34.1640625,-11.625 34.0859375,-10.359375 L31.2109375,-10.640625 Q31.4765625,-13.015625 32.8203125,-14.046875 Q34.1796875,-15.09375 36.2109375,-15.09375 Q38.4296875,-15.09375 39.6953125,-13.890625 Q40.9765625,-12.6875 40.9765625,-10.90625 Q40.9765625,-9.890625 40.6015625,-8.96875 Q40.2421875,-8.0625 39.4609375,-7.0625 Q38.9296875,-6.390625 37.5703125,-5.140625 Q36.2109375,-3.890625 35.8359375,-3.46875 Q35.4765625,-3.0625 35.2578125,-2.671875 L40.9765625,-2.671875 Z M48.57763671875,0 L48.57763671875,-3.03125 L42.42138671875,-3.03125 L42.42138671875,-5.546875 L48.93701171875,-15.09375 L51.35888671875,-15.09375 L51.35888671875,-5.5625 L53.23388671875,-5.5625 L53.23388671875,-3.03125 L51.35888671875,-3.03125 L51.35888671875,0 L48.57763671875,0 Z M48.57763671875,-5.5625 L48.57763671875,-10.6875 L45.12451171875,-5.5625 L48.57763671875,-5.5625 Z" style="fill:rgb(247,109,2);stroke:none;"/>
  </g>
  <g transform="translate(733.820556640625 815.671875)">
    <path d="M5.765625,-15.09375 Q7.953125,-15.09375 9.171875,-13.53125 Q10.640625,-11.6875 10.640625,-7.40625 Q10.640625,-3.140625 9.171875,-1.28125 Q7.953125,0.25 5.765625,0.25 Q3.5625,0.25 2.21875,-1.4375 Q0.875,-3.125 0.875,-7.4375 Q0.875,-11.6875 2.359375,-13.5625 Q3.578125,-15.09375 5.765625,-15.09375 Z M5.765625,-12.703125 Q5.234375,-12.703125 4.828125,-12.359375 Q4.421875,-12.03125 4.1875,-11.171875 Q3.890625,-10.0625 3.890625,-7.40625 Q3.890625,-4.765625 4.15625,-3.78125 Q4.4375,-2.796875 4.828125,-2.46875 Q5.234375,-2.140625 5.765625,-2.140625 Q6.28125,-2.140625 6.6875,-2.46875 Q7.109375,-2.796875 7.328125,-3.65625 Q7.625,-4.765625 7.625,-7.40625 Q7.625,-10.0625 7.359375,-11.046875 Q7.09375,-12.03125 6.6875,-12.359375 Q6.28125,-12.703125 5.765625,-12.703125 Z M12.56982421875,-12.15625 L12.56982421875,-14.828125 L22.42919921875,-14.828125 L22.42919921875,-12.734375 Q21.21044921875,-11.53125 19.94482421875,-9.28125 Q18.67919921875,-7.046875 18.02294921875,-4.515625 Q17.36669921875,-1.984375 17.36669921875,0 L14.58544921875,0 Q14.66357421875,-3.125 15.88232421875,-6.359375 Q17.10107421875,-9.59375 19.11669921875,-12.15625 L12.56982421875,-12.15625 Z M25.4208984375,-8.015625 L25.4208984375,-10.890625 L28.2958984375,-10.890625 L28.2958984375,-8.015625 L25.4208984375,-8.015625 Z M25.4208984375,0 L25.4208984375,-2.875 L28.2958984375,-2.875 L28.2958984375,0 L25.4208984375,0 Z M40.9765625,-2.671875 L40.9765625,0 L30.8671875,0 Q31.0390625,-1.515625 31.8515625,-2.875 Q32.6796875,-4.234375 35.1015625,-6.484375 Q37.0546875,-8.296875 37.4921875,-8.9375 Q38.0859375,-9.828125 38.0859375,-10.703125 Q38.0859375,-11.671875 37.5703125,-12.1875 Q37.0546875,-12.703125 36.1328125,-12.703125 Q35.2265625,-12.703125 34.6953125,-12.15625 Q34.1640625,-11.625 34.0859375,-10.359375 L31.2109375,-10.640625 Q31.4765625,-13.015625 32.8203125,-14.046875 Q34.1796875,-15.09375 36.2109375,-15.09375 Q38.4296875,-15.09375 39.6953125,-13.890625 Q40.9765625,-12.6875 40.9765625,-10.90625 Q40.9765625,-9.890625 40.6015625,-8.96875 Q40.2421875,-8.0625 39.4609375,-7.0625 Q38.9296875,-6.390625 37.5703125,-5.140625 Q36.2109375,-3.890625 35.8359375,-3.46875 Q35.4765625,-3.0625 35.2578125,-2.671875 L40.9765625,-2.671875 Z M48.57763671875,0 L48.57763671875,-3.03125 L42.42138671875,-3.03125 L42.42138671875,-5.546875 L48.93701171875,-15.09375 L51.35888671875,-15.09375 L51.35888671875,-5.5625 L53.23388671875,-5.5625 L53.23388671875,-3.03125 L51.35888671875,-3.03125 L51.35888671875,0 L48.57763671875,0 Z M48.57763671875,-5.5625 L48.57763671875,-10.6875 L45.12451171875,-5.5625 L48.57763671875,-5.5625 Z" style="fill:rgb(247,109,2);stroke:none;"/>
  </g>
  <g transform="translate(676.820556640625 759.6796875)">
    <path d="M5.765625,-15.09375 Q7.953125,-15.09375 9.171875,-13.53125 Q10.640625,-11.6875 10.640625,-7.40625 Q10.640625,-3.140625 9.171875,-1.28125 Q7.953125,0.25 5.765625,0.25 Q3.5625,0.25 2.21875,-1.4375 Q0.875,-3.125 0.875,-7.4375 Q0.875,-11.6875 2.359375,-13.5625 Q3.578125,-15.09375 5.765625,-15.09375 Z M5.765625,-12.703125 Q5.234375,-12.703125 4.828125,-12.359375 Q4.421875,-12.03125 4.1875,-11.171875 Q3.890625,-10.0625 3.890625,-7.40625 Q3.890625,-4.765625 4.15625,-3.78125 Q4.4375,-2.796875 4.828125,-2.46875 Q5.234375,-2.140625 5.765625,-2.140625 Q6.28125,-2.140625 6.6875,-2.46875 Q7.109375,-2.796875 7.328125,-3.65625 Q7.625,-4.765625 7.625,-7.40625 Q7.625,-10.0625 7.359375,-11.046875 Q7.09375,-12.03125 6.6875,-12.359375 Q6.28125,-12.703125 5.765625,-12.703125 Z M15.03857421875,-8.109375 Q13.92919921875,-8.578125 13.41357421875,-9.40625 Q12.91357421875,-10.234375 12.91357421875,-11.21875 Q12.91357421875,-12.90625 14.08544921875,-14 Q15.25732421875,-15.09375 17.42919921875,-15.09375 Q19.56982421875,-15.09375 20.74169921875,-14 Q21.92919921875,-12.90625 21.92919921875,-11.21875 Q21.92919921875,-10.171875 21.38232421875,-9.359375 Q20.85107421875,-8.546875 19.86669921875,-8.109375 Q21.11669921875,-7.609375 21.75732421875,-6.640625 Q22.41357421875,-5.6875 22.41357421875,-4.421875 Q22.41357421875,-2.34375 21.08544921875,-1.03125 Q19.75732421875,0.265625 17.55419921875,0.265625 Q15.50732421875,0.265625 14.14794921875,-0.8125 Q12.52294921875,-2.078125 12.52294921875,-4.296875 Q12.52294921875,-5.515625 13.13232421875,-6.53125 Q13.74169921875,-7.5625 15.03857421875,-8.109375 Z M15.63232421875,-11.015625 Q15.63232421875,-10.15625 16.11669921875,-9.671875 Q16.61669921875,-9.1875 17.42919921875,-9.1875 Q18.24169921875,-9.1875 18.72607421875,-9.671875 Q19.22607421875,-10.15625 19.22607421875,-11.015625 Q19.22607421875,-11.828125 18.74169921875,-12.3125 Q18.25732421875,-12.8125 17.44482421875,-12.8125 Q16.61669921875,-12.8125 16.11669921875,-12.3125 Q15.63232421875,-11.828125 15.63232421875,-11.015625 Z M15.36669921875,-4.578125 Q15.36669921875,-3.390625 15.97607421875,-2.71875 Q16.58544921875,-2.046875 17.50732421875,-2.046875 Q18.39794921875,-2.046875 18.97607421875,-2.6875 Q19.56982421875,-3.328125 19.56982421875,-4.546875 Q19.56982421875,-5.59375 18.97607421875,-6.234375 Q18.38232421875,-6.875 17.46044921875,-6.875 Q16.41357421875,-6.875 15.88232421875,-6.140625 Q15.36669921875,-5.421875 15.36669921875,-4.578125 Z M25.4208984375,-8.015625 L25.4208984375,-10.890625 L28.2958984375,-10.890625 L28.2958984375,-8.015625 L25.4208984375,-8.015625 Z M25.4208984375,0 L25.4208984375,-2.875 L28.2958984375,-2.875 L28.2958984375,0 L25.4208984375,0 Z M40.9765625,-2.671875 L40.9765625,0 L30.8671875,0 Q31.0390625,-1.515625 31.8515625,-2.875 Q32.6796875,-4.234375 35.1015625,-6.484375 Q37.0546875,-8.296875 37.4921875,-8.9375 Q38.0859375,-9.828125 38.0859375,-10.703125 Q38.0859375,-11.671875 37.5703125,-12.1875 Q37.0546875,-12.703125 36.1328125,-12.703125 Q35.2265625,-12.703125 34.6953125,-12.15625 Q34.1640625,-11.625 34.0859375,-10.359375 L31.2109375,-10.640625 Q31.4765625,-13.015625 32.8203125,-14.046875 Q34.1796875,-15.09375 36.2109375,-15.09375 Q38.4296875,-15.09375 39.6953125,-13.890625 Q40.9765625,-12.6875 40.9765625,-10.90625 Q40.9765625,-9.890625 40.6015625,-8.96875 Q40.2421875,-8.0625 39.4609375,-7.0625 Q38.9296875,-6.390625 37.5703125,-5.140625 Q36.2109375,-3.890625 35.8359375,-3.46875 Q35.4765625,-3.0625 35.2578125,-2.671875 L40.9765625,-2.671875 Z M48.57763671875,0 L48.57763671875,-3.03125 L42.42138671875,-3.03125 L42.42138671875,-5.546875 L48.93701171875,-15.09375 L51.35888671875,-15.09375 L51.35888671875,-5.5625 L53.23388671875,-5.5625 L53.23388671875,-3.03125 L51.35888671875,-3.03125 L51.35888671875,0 L48.57763671875,0 Z M48.57763671875,-5.5625 L48.57763671875,-10.6875 L45.12451171875,-5.5625 L48.57763671875,-5.5625 Z" style="fill:rgb(247,109,2);stroke:none;"/>
  </g>
  <g transform="translate(620.820556640625 702.6796875)">
    <path d="M5.765625,-15.09375 Q7.953125,-15.09375 9.171875,-13.53125 Q10.640625,-11.6875 10.640625,-7.40625 Q10.640625,-3.140625 9.171875,-1.28125 Q7.953125,0.25 5.765625,0.25 Q3.5625,0.25 2.21875,-1.4375 Q0.875,-3.125 0.875,-7.4375 Q0.875,-11.6875 2.359375,-13.5625 Q3.578125,-15.09375 5.765625,-15.09375 Z M5.765625,-12.703125 Q5.234375,-12.703125 4.828125,-12.359375 Q4.421875,-12.03125 4.1875,-11.171875 Q3.890625,-10.0625 3.890625,-7.40625 Q3.890625,-4.765625 4.15625,-3.78125 Q4.4375,-2.796875 4.828125,-2.46875 Q5.234375,-2.140625 5.765625,-2.140625 Q6.28125,-2.140625 6.6875,-2.46875 Q7.109375,-2.796875 7.328125,-3.65625 Q7.625,-4.765625 7.625,-7.40625 Q7.625,-10.0625 7.359375,-11.046875 Q7.09375,-12.03125 6.6875,-12.359375 Q6.28125,-12.703125 5.765625,-12.703125 Z M12.63232421875,-3.46875 L15.42919921875,-3.78125 Q15.52294921875,-2.9375 15.94482421875,-2.515625 Q16.38232421875,-2.109375 17.10107421875,-2.109375 Q17.99169921875,-2.109375 18.61669921875,-2.921875 Q19.24169921875,-3.75 19.41357421875,-6.34375 Q18.31982421875,-5.078125 16.69482421875,-5.078125 Q14.91357421875,-5.078125 13.63232421875,-6.4375 Q12.35107421875,-7.8125 12.35107421875,-10.015625 Q12.35107421875,-12.296875 13.71044921875,-13.6875 Q15.06982421875,-15.09375 17.16357421875,-15.09375 Q19.44482421875,-15.09375 20.91357421875,-13.328125 Q22.38232421875,-11.5625 22.38232421875,-7.5 Q22.38232421875,-3.390625 20.85107421875,-1.5625 Q19.33544921875,0.265625 16.88232421875,0.265625 Q15.11669921875,0.265625 14.02294921875,-0.671875 Q12.94482421875,-1.609375 12.63232421875,-3.46875 Z M19.14794921875,-9.765625 Q19.14794921875,-11.171875 18.50732421875,-11.9375 Q17.86669921875,-12.703125 17.03857421875,-12.703125 Q16.22607421875,-12.703125 15.69482421875,-12.0625 Q15.17919921875,-11.4375 15.17919921875,-10.015625 Q15.17919921875,-8.546875 15.74169921875,-7.859375 Q16.31982421875,-7.1875 17.17919921875,-7.1875 Q18.02294921875,-7.1875 18.58544921875,-7.84375 Q19.14794921875,-8.5 19.14794921875,-9.765625 Z M25.4208984375,-8.015625 L25.4208984375,-10.890625 L28.2958984375,-10.890625 L28.2958984375,-8.015625 L25.4208984375,-8.015625 Z M25.4208984375,0 L25.4208984375,-2.875 L28.2958984375,-2.875 L28.2958984375,0 L25.4208984375,0 Z M40.9765625,-2.671875 L40.9765625,0 L30.8671875,0 Q31.0390625,-1.515625 31.8515625,-2.875 Q32.6796875,-4.234375 35.1015625,-6.484375 Q37.0546875,-8.296875 37.4921875,-8.9375 Q38.0859375,-9.828125 38.0859375,-10.703125 Q38.0859375,-11.671875 37.5703125,-12.1875 Q37.0546875,-12.703125 36.1328125,-12.703125 Q35.2265625,-12.703125 34.6953125,-12.15625 Q34.1640625,-11.625 34.0859375,-10.359375 L31.2109375,-10.640625 Q31.4765625,-13.015625 32.8203125,-14.046875 Q34.1796875,-15.09375 36.2109375,-15.09375 Q38.4296875,-15.09375 39.6953125,-13.890625 Q40.9765625,-12.6875 40.9765625,-10.90625 Q40.9765625,-9.890625 40.6015625,-8.96875 Q40.2421875,-8.0625 39.4609375,-7.0625 Q38.9296875,-6.390625 37.5703125,-5.140625 Q36.2109375,-3.890625 35.8359375,-3.46875 Q35.4765625,-3.0625 35.2578125,-2.671875 L40.9765625,-2.671875 Z M48.57763671875,0 L48.57763671875,-3.03125 L42.42138671875,-3.03125 L42.42138671875,-5.546875 L48.93701171875,-15.09375 L51.35888671875,-15.09375 L51.35888671875,-5.5625 L53.23388671875,-5.5625 L53.23388671875,-3.03125 L51.35888671875,-3.03125 L51.35888671875,0 L48.57763671875,0 Z M48.57763671875,-5.5625 L48.57763671875,-10.6875 L45.12451171875,-5.5625 L48.57763671875,-5.5625 Z" style="fill:rgb(247,109,2);stroke:none;"/>
  </g>
  <g transform="translate(564.211181640625 645.671875)">
    <path d="M8.265625,-0 L5.390625,-0 L5.390625,-10.859375 Q3.796875,-9.375 1.65625,-8.671875 L1.65625,-11.296875 Q2.796875,-11.65625 4.109375,-12.6875 Q5.4375,-13.71875 5.921875,-15.09375 L8.265625,-15.09375 L8.265625,-0 Z M17.44482421875,-15.09375 Q19.63232421875,-15.09375 20.85107421875,-13.53125 Q22.31982421875,-11.6875 22.31982421875,-7.40625 Q22.31982421875,-3.140625 20.85107421875,-1.28125 Q19.63232421875,0.25 17.44482421875,0.25 Q15.24169921875,0.25 13.89794921875,-1.4375 Q12.55419921875,-3.125 12.55419921875,-7.4375 Q12.55419921875,-11.6875 14.03857421875,-13.5625 Q15.25732421875,-15.09375 17.44482421875,-15.09375 Z M17.44482421875,-12.703125 Q16.91357421875,-12.703125 16.50732421875,-12.359375 Q16.10107421875,-12.03125 15.86669921875,-11.171875 Q15.56982421875,-10.0625 15.56982421875,-7.40625 Q15.56982421875,-4.765625 15.83544921875,-3.78125 Q16.11669921875,-2.796875 16.50732421875,-2.46875 Q16.91357421875,-2.140625 17.44482421875,-2.140625 Q17.96044921875,-2.140625 18.36669921875,-2.46875 Q18.78857421875,-2.796875 19.00732421875,-3.65625 Q19.30419921875,-4.765625 19.30419921875,-7.40625 Q19.30419921875,-10.0625 19.03857421875,-11.046875 Q18.77294921875,-12.03125 18.36669921875,-12.359375 Q17.96044921875,-12.703125 17.44482421875,-12.703125 Z M25.4208984375,-8.015625 L25.4208984375,-10.890625 L28.2958984375,-10.890625 L28.2958984375,-8.015625 L25.4208984375,-8.015625 Z M25.4208984375,0 L25.4208984375,-2.875 L28.2958984375,-2.875 L28.2958984375,0 L25.4208984375,0 Z M40.9765625,-2.671875 L40.9765625,0 L30.8671875,0 Q31.0390625,-1.515625 31.8515625,-2.875 Q32.6796875,-4.234375 35.1015625,-6.484375 Q37.0546875,-8.296875 37.4921875,-8.9375 Q38.0859375,-9.828125 38.0859375,-10.703125 Q38.0859375,-11.671875 37.5703125,-12.1875 Q37.0546875,-12.703125 36.1328125,-12.703125 Q35.2265625,-12.703125 34.6953125,-12.15625 Q34.1640625,-11.625 34.0859375,-10.359375 L31.2109375,-10.640625 Q31.4765625,-13.015625 32.8203125,-14.046875 Q34.1796875,-15.09375 36.2109375,-15.09375 Q38.4296875,-15.09375 39.6953125,-13.890625 Q40.9765625,-12.6875 40.9765625,-10.90625 Q40.9765625,-9.890625 40.6015625,-8.96875 Q40.2421875,-8.0625 39.4609375,-7.0625 Q38.9296875,-6.390625 37.5703125,-5.140625 Q36.2109375,-3.890625 35.8359375,-3.46875 Q35.4765625,-3.0625 35.2578125,-2.671875 L40.9765625,-2.671875 Z M48.57763671875,0 L48.57763671875,-3.03125 L42.42138671875,-3.03125 L42.42138671875,-5.546875 L48.93701171875,-15.09375 L51.35888671875,-15.09375 L51.35888671875,-5.5625 L53.23388671875,-5.5625 L53.23388671875,-3.03125 L51.35888671875,-3.03125 L51.35888671875,0 L48.57763671875,0 Z M48.57763671875,-5.5625 L48.57763671875,-10.6875 L45.12451171875,-5.5625 L48.57763671875,-5.5625 Z" style="fill:rgb(247,109,2);stroke:none;"/>
  </g>
  <g transform="translate(507.211181640625 588.546875)">
    <path d="M8.265625,-0 L5.390625,-0 L5.390625,-10.859375 Q3.796875,-9.375 1.65625,-8.671875 L1.65625,-11.296875 Q2.796875,-11.65625 4.109375,-12.6875 Q5.4375,-13.71875 5.921875,-15.09375 L8.265625,-15.09375 L8.265625,-0 Z M19.94482421875,0 L17.06982421875,0 L17.06982421875,-10.859375 Q15.47607421875,-9.375 13.33544921875,-8.671875 L13.33544921875,-11.296875 Q14.47607421875,-11.65625 15.78857421875,-12.6875 Q17.11669921875,-13.71875 17.60107421875,-15.09375 L19.94482421875,-15.09375 L19.94482421875,0 Z M25.4208984375,-8.015625 L25.4208984375,-10.890625 L28.2958984375,-10.890625 L28.2958984375,-8.015625 L25.4208984375,-8.015625 Z M25.4208984375,0 L25.4208984375,-2.875 L28.2958984375,-2.875 L28.2958984375,0 L25.4208984375,0 Z M40.9765625,-2.671875 L40.9765625,0 L30.8671875,0 Q31.0390625,-1.515625 31.8515625,-2.875 Q32.6796875,-4.234375 35.1015625,-6.484375 Q37.0546875,-8.296875 37.4921875,-8.9375 Q38.0859375,-9.828125 38.0859375,-10.703125 Q38.0859375,-11.671875 37.5703125,-12.1875 Q37.0546875,-12.703125 36.1328125,-12.703125 Q35.2265625,-12.703125 34.6953125,-12.15625 Q34.1640625,-11.625 34.0859375,-10.359375 L31.2109375,-10.640625 Q31.4765625,-13.015625 32.8203125,-14.046875 Q34.1796875,-15.09375 36.2109375,-15.09375 Q38.4296875,-15.09375 39.6953125,-13.890625 Q40.9765625,-12.6875 40.9765625,-10.90625 Q40.9765625,-9.890625 40.6015625,-8.96875 Q40.2421875,-8.0625 39.4609375,-7.0625 Q38.9296875,-6.390625 37.5703125,-5.140625 Q36.2109375,-3.890625 35.8359375,-3.46875 Q35.4765625,-3.0625 35.2578125,-2.671875 L40.9765625,-2.671875 Z M48.57763671875,0 L48.57763671875,-3.03125 L42.42138671875,-3.03125 L42.42138671875,-5.546875 L48.93701171875,-15.09375 L51.35888671875,-15.09375 L51.35888671875,-5.5625 L53.23388671875,-5.5625 L53.23388671875,-3.03125 L51.35888671875,-3.03125 L51.35888671875,0 L48.57763671875,0 Z M48.57763671875,-5.5625 L48.57763671875,-10.6875 L45.12451171875,-5.5625 L48.57763671875,-5.5625 Z" style="fill:rgb(247,109,2);stroke:none;"/>
  </g>
  <g transform="translate(451.211181640625 532.546875)">
    <path d="M8.265625,-0 L5.390625,-0 L5.390625,-10.859375 Q3.796875,-9.375 1.65625,-8.671875 L1.65625,-11.296875 Q2.796875,-11.65625 4.109375,-12.6875 Q5.4375,-13.71875 5.921875,-15.09375 L8.265625,-15.09375 L8.265625,-0 Z M22.30419921875,-2.671875 L22.30419921875,0 L12.19482421875,0 Q12.36669921875,-1.515625 13.17919921875,-2.875 Q14.00732421875,-4.234375 16.42919921875,-6.484375 Q18.38232421875,-8.296875 18.81982421875,-8.9375 Q19.41357421875,-9.828125 19.41357421875,-10.703125 Q19.41357421875,-11.671875 18.89794921875,-12.1875 Q18.38232421875,-12.703125 17.46044921875,-12.703125 Q16.55419921875,-12.703125 16.02294921875,-12.15625 Q15.49169921875,-11.625 15.41357421875,-10.359375 L12.53857421875,-10.640625 Q12.80419921875,-13.015625 14.14794921875,-14.046875 Q15.50732421875,-15.09375 17.53857421875,-15.09375 Q19.75732421875,-15.09375 21.02294921875,-13.890625 Q22.30419921875,-12.6875 22.30419921875,-10.90625 Q22.30419921875,-9.890625 21.92919921875,-8.96875 Q21.56982421875,-8.0625 20.78857421875,-7.0625 Q20.25732421875,-6.390625 18.89794921875,-5.140625 Q17.53857421875,-3.890625 17.16357421875,-3.46875 Q16.80419921875,-3.0625 16.58544921875,-2.671875 L22.30419921875,-2.671875 Z M25.4208984375,-8.015625 L25.4208984375,-10.890625 L28.2958984375,-10.890625 L28.2958984375,-8.015625 L25.4208984375,-8.015625 Z M25.4208984375,0 L25.4208984375,-2.875 L28.2958984375,-2.875 L28.2958984375,0 L25.4208984375,0 Z M40.9765625,-2.671875 L40.9765625,0 L30.8671875,0 Q31.0390625,-1.515625 31.8515625,-2.875 Q32.6796875,-4.234375 35.1015625,-6.484375 Q37.0546875,-8.296875 37.4921875,-8.9375 Q38.0859375,-9.828125 38.0859375,-10.703125 Q38.0859375,-11.671875 37.5703125,-12.1875 Q37.0546875,-12.703125 36.1328125,-12.703125 Q35.2265625,-12.703125 34.6953125,-12.15625 Q34.1640625,-11.625 34.0859375,-10.359375 L31.2109375,-10.640625 Q31.4765625,-13.015625 32.8203125,-14.046875 Q34.1796875,-15.09375 36.2109375,-15.09375 Q38.4296875,-15.09375 39.6953125,-13.890625 Q40.9765625,-12.6875 40.9765625,-10.90625 Q40.9765625,-9.890625 40.6015625,-8.96875 Q40.2421875,-8.0625 39.4609375,-7.0625 Q38.9296875,-6.390625 37.5703125,-5.140625 Q36.2109375,-3.890625 35.8359375,-3.46875 Q35.4765625,-3.0625 35.2578125,-2.671875 L40.9765625,-2.671875 Z M48.57763671875,0 L48.57763671875,-3.03125 L42.42138671875,-3.03125 L42.42138671875,-5.546875 L48.93701171875,-15.09375 L51.35888671875,-15.09375 L51.35888671875,-5.5625 L53.23388671875,-5.5625 L53.23388671875,-3.03125 L51.35888671875,-3.03125 L51.35888671875,0 L48.57763671875,0 Z M48.57763671875,-5.5625 L48.57763671875,-10.6875 L45.12451171875,-5.5625 L48.57763671875,-5.5625 Z" style="fill:rgb(247,109,2);stroke:none;"/>
  </g>
  <g transform="translate(395.211181640625 475.671875)">
    <path d="M8.265625,-0 L5.390625,-0 L5.390625,-10.859375 Q3.796875,-9.375 1.65625,-8.671875 L1.65625,-11.296875 Q2.796875,-11.65625 4.109375,-12.6875 Q5.4375,-13.71875 5.921875,-15.09375 L8.265625,-15.09375 L8.265625,-0 Z M12.47607421875,-3.984375 L15.25732421875,-4.328125 Q15.39794921875,-3.265625 15.97607421875,-2.703125 Q16.55419921875,-2.140625 17.39794921875,-2.140625 Q18.28857421875,-2.140625 18.89794921875,-2.8125 Q19.50732421875,-3.484375 19.50732421875,-4.640625 Q19.50732421875,-5.71875 18.91357421875,-6.359375 Q18.33544921875,-7 17.49169921875,-7 Q16.94482421875,-7 16.16357421875,-6.78125 L16.49169921875,-9.125 Q17.66357421875,-9.09375 18.27294921875,-9.625 Q18.88232421875,-10.171875 18.88232421875,-11.0625 Q18.88232421875,-11.828125 18.42919921875,-12.265625 Q17.99169921875,-12.71875 17.24169921875,-12.71875 Q16.49169921875,-12.71875 15.97607421875,-12.203125 Q15.46044921875,-11.703125 15.33544921875,-10.71875 L12.67919921875,-11.171875 Q12.96044921875,-12.53125 13.52294921875,-13.34375 Q14.08544921875,-14.15625 15.08544921875,-14.625 Q16.08544921875,-15.09375 17.31982421875,-15.09375 Q19.44482421875,-15.09375 20.72607421875,-13.734375 Q21.77294921875,-12.640625 21.77294921875,-11.234375 Q21.77294921875,-9.265625 19.61669921875,-8.078125 Q20.91357421875,-7.796875 21.67919921875,-6.828125 Q22.46044921875,-5.875 22.46044921875,-4.515625 Q22.46044921875,-2.53125 21.00732421875,-1.140625 Q19.56982421875,0.25 17.41357421875,0.25 Q15.36669921875,0.25 14.02294921875,-0.921875 Q12.67919921875,-2.09375 12.47607421875,-3.984375 Z M25.4208984375,-8.015625 L25.4208984375,-10.890625 L28.2958984375,-10.890625 L28.2958984375,-8.015625 L25.4208984375,-8.015625 Z M25.4208984375,0 L25.4208984375,-2.875 L28.2958984375,-2.875 L28.2958984375,0 L25.4208984375,0 Z M40.9765625,-2.671875 L40.9765625,0 L30.8671875,0 Q31.0390625,-1.515625 31.8515625,-2.875 Q32.6796875,-4.234375 35.1015625,-6.484375 Q37.0546875,-8.296875 37.4921875,-8.9375 Q38.0859375,-9.828125 38.0859375,-10.703125 Q38.0859375,-11.671875 37.5703125,-12.1875 Q37.0546875,-12.703125 36.1328125,-12.703125 Q35.2265625,-12.703125 34.6953125,-12.15625 Q34.1640625,-11.625 34.0859375,-10.359375 L31.2109375,-10.640625 Q31.4765625,-13.015625 32.8203125,-14.046875 Q34.1796875,-15.09375 36.2109375,-15.09375 Q38.4296875,-15.09375 39.6953125,-13.890625 Q40.9765625,-12.6875 40.9765625,-10.90625 Q40.9765625,-9.890625 40.6015625,-8.96875 Q40.2421875,-8.0625 39.4609375,-7.0625 Q38.9296875,-6.390625 37.5703125,-5.140625 Q36.2109375,-3.890625 35.8359375,-3.46875 Q35.4765625,-3.0625 35.2578125,-2.671875 L40.9765625,-2.671875 Z M48.57763671875,0 L48.57763671875,-3.03125 L42.42138671875,-3.03125 L42.42138671875,-5.546875 L48.93701171875,-15.09375 L51.35888671875,-15.09375 L51.35888671875,-5.5625 L53.23388671875,-5.5625 L53.23388671875,-3.03125 L51.35888671875,-3.03125 L51.35888671875,0 L48.57763671875,0 Z M48.57763671875,-5.5625 L48.57763671875,-10.6875 L45.12451171875,-5.5625 L48.57763671875,-5.5625 Z" style="fill:rgb(247,109,2);stroke:none;"/>
  </g>
  <g transform="translate(339.211181640625 418.546875)">
    <path d="M8.265625,-0 L5.390625,-0 L5.390625,-10.859375 Q3.796875,-9.375 1.65625,-8.671875 L1.65625,-11.296875 Q2.796875,-11.65625 4.109375,-12.6875 Q5.4375,-13.71875 5.921875,-15.09375 L8.265625,-15.09375 L8.265625,-0 Z M18.22607421875,0 L18.22607421875,-3.03125 L12.06982421875,-3.03125 L12.06982421875,-5.546875 L18.58544921875,-15.09375 L21.00732421875,-15.09375 L21.00732421875,-5.5625 L22.88232421875,-5.5625 L22.88232421875,-3.03125 L21.00732421875,-3.03125 L21.00732421875,0 L18.22607421875,0 Z M18.22607421875,-5.5625 L18.22607421875,-10.6875 L14.77294921875,-5.5625 L18.22607421875,-5.5625 Z M25.4208984375,-8.015625 L25.4208984375,-10.890625 L28.2958984375,-10.890625 L28.2958984375,-8.015625 L25.4208984375,-8.015625 Z M25.4208984375,0 L25.4208984375,-2.875 L28.2958984375,-2.875 L28.2958984375,0 L25.4208984375,0 Z M40.9765625,-2.671875 L40.9765625,0 L30.8671875,0 Q31.0390625,-1.515625 31.8515625,-2.875 Q32.6796875,-4.234375 35.1015625,-6.484375 Q37.0546875,-8.296875 37.4921875,-8.9375 Q38.0859375,-9.828125 38.0859375,-10.703125 Q38.0859375,-11.671875 37.5703125,-12.1875 Q37.0546875,-12.703125 36.1328125,-12.703125 Q35.2265625,-12.703125 34.6953125,-12.15625 Q34.1640625,-11.625 34.0859375,-10.359375 L31.2109375,-10.640625 Q31.4765625,-13.015625 32.8203125,-14.046875 Q34.1796875,-15.09375 36.2109375,-15.09375 Q38.4296875,-15.09375 39.6953125,-13.890625 Q40.9765625,-12.6875 40.9765625,-10.90625 Q40.9765625,-9.890625 40.6015625,-8.96875 Q40.2421875,-8.0625 39.4609375,-7.0625 Q38.9296875,-6.390625 37.5703125,-5.140625 Q36.2109375,-3.890625 35.8359375,-3.46875 Q35.4765625,-3.0625 35.2578125,-2.671875 L40.9765625,-2.671875 Z M48.57763671875,0 L48.57763671875,-3.03125 L42.42138671875,-3.03125 L42.42138671875,-5.546875 L48.93701171875,-15.09375 L51.35888671875,-15.09375 L51.35888671875,-5.5625 L53.23388671875,-5.5625 L53.23388671875,-3.03125 L51.35888671875,-3.03125 L51.35888671875,0 L48.57763671875,0 Z M48.57763671875,-5.5625 L48.57763671875,-10.6875 L45.12451171875,-5.5625 L48.57763671875,-5.5625 Z" style="fill:rgb(247,109,2);stroke:none;"/>
  </g>
  <g transform="translate(282.211181640625 361.671875)">
    <path d="M8.265625,-0 L5.390625,-0 L5.390625,-10.859375 Q3.796875,-9.375 1.65625,-8.671875 L1.65625,-11.296875 Q2.796875,-11.65625 4.109375,-12.6875 Q5.4375,-13.71875 5.921875,-15.09375 L8.265625,-15.09375 L8.265625,-0 Z M12.61669921875,-3.859375 L15.47607421875,-4.15625 Q15.60107421875,-3.1875 16.21044921875,-2.609375 Q16.81982421875,-2.046875 17.60107421875,-2.046875 Q18.50732421875,-2.046875 19.13232421875,-2.78125 Q19.75732421875,-3.515625 19.75732421875,-5 Q19.75732421875,-6.375 19.13232421875,-7.0625 Q18.52294921875,-7.765625 17.52294921875,-7.765625 Q16.28857421875,-7.765625 15.30419921875,-6.671875 L12.96044921875,-7 L14.44482421875,-14.828125 L22.05419921875,-14.828125 L22.05419921875,-12.125 L16.61669921875,-12.125 L16.16357421875,-9.578125 Q17.13232421875,-10.0625 18.13232421875,-10.0625 Q20.05419921875,-10.0625 21.38232421875,-8.65625 Q22.72607421875,-7.265625 22.72607421875,-5.046875 Q22.72607421875,-3.1875 21.64794921875,-1.734375 Q20.17919921875,0.25 17.56982421875,0.25 Q15.49169921875,0.25 14.17919921875,-0.859375 Q12.86669921875,-1.984375 12.61669921875,-3.859375 Z M25.4208984375,-8.015625 L25.4208984375,-10.890625 L28.2958984375,-10.890625 L28.2958984375,-8.015625 L25.4208984375,-8.015625 Z M25.4208984375,0 L25.4208984375,-2.875 L28.2958984375,-2.875 L28.2958984375,0 L25.4208984375,0 Z M40.9765625,-2.671875 L40.9765625,0 L30.8671875,0 Q31.0390625,-1.515625 31.8515625,-2.875 Q32.6796875,-4.234375 35.1015625,-6.484375 Q37.0546875,-8.296875 37.4921875,-8.9375 Q38.0859375,-9.828125 38.0859375,-10.703125 Q38.0859375,-11.671875 37.5703125,-12.1875 Q37.0546875,-12.703125 36.1328125,-12.703125 Q35.2265625,-12.703125 34.6953125,-12.15625 Q34.1640625,-11.625 34.0859375,-10.359375 L31.2109375,-10.640625 Q31.4765625,-13.015625 32.8203125,-14.046875 Q34.1796875,-15.09375 36.2109375,-15.09375 Q38.4296875,-15.09375 39.6953125,-13.890625 Q40.9765625,-12.6875 40.9765625,-10.90625 Q40.9765625,-9.890625 40.6015625,-8.96875 Q40.2421875,-8.0625 39.4609375,-7.0625 Q38.9296875,-6.390625 37.5703125,-5.140625 Q36.2109375,-3.890625 35.8359375,-3.46875 Q35.4765625,-3.0625 35.2578125,-2.671875 L40.9765625,-2.671875 Z M48.57763671875,0 L48.57763671875,-3.03125 L42.42138671875,-3.03125 L42.42138671875,-5.546875 L48.93701171875,-15.09375 L51.35888671875,-15.09375 L51.35888671875,-5.5625 L53.23388671875,-5.5625 L53.23388671875,-3.03125 L51.35888671875,-3.03125 L51.35888671875,0 L48.57763671875,0 Z M48.57763671875,-5.5625 L48.57763671875,-10.6875 L45.12451171875,-5.5625 L48.57763671875,-5.5625 Z" style="fill:rgb(247,109,2);stroke:none;"/>
  </g>
  <g transform="translate(227.211181640625 304.671875)">
    <path d="M8.265625,-0 L5.390625,-0 L5.390625,-10.859375 Q3.796875,-9.375 1.65625,-8.671875 L1.65625,-11.296875 Q2.796875,-11.65625 4.109375,-12.6875 Q5.4375,-13.71875 5.921875,-15.09375 L8.265625,-15.09375 L8.265625,-0 Z M22.33544921875,-11.34375 L19.53857421875,-11.046875 Q19.44482421875,-11.90625 19.00732421875,-12.3125 Q18.58544921875,-12.71875 17.89794921875,-12.71875 Q16.97607421875,-12.71875 16.35107421875,-11.890625 Q15.72607421875,-11.078125 15.55419921875,-8.484375 Q16.63232421875,-9.765625 18.22607421875,-9.765625 Q20.03857421875,-9.765625 21.31982421875,-8.390625 Q22.61669921875,-7.015625 22.61669921875,-4.84375 Q22.61669921875,-2.53125 21.25732421875,-1.140625 Q19.89794921875,0.25 17.77294921875,0.25 Q15.50732421875,0.25 14.03857421875,-1.515625 Q12.56982421875,-3.28125 12.56982421875,-7.3125 Q12.56982421875,-11.4375 14.10107421875,-13.265625 Q15.63232421875,-15.09375 18.06982421875,-15.09375 Q19.77294921875,-15.09375 20.89794921875,-14.125 Q22.02294921875,-13.171875 22.33544921875,-11.34375 Z M15.80419921875,-5.0625 Q15.80419921875,-3.65625 16.44482421875,-2.890625 Q17.10107421875,-2.140625 17.92919921875,-2.140625 Q18.72607421875,-2.140625 19.25732421875,-2.765625 Q19.78857421875,-3.390625 19.78857421875,-4.8125 Q19.78857421875,-6.28125 19.21044921875,-6.953125 Q18.64794921875,-7.640625 17.77294921875,-7.640625 Q16.94482421875,-7.640625 16.36669921875,-6.984375 Q15.80419921875,-6.34375 15.80419921875,-5.0625 Z M25.4208984375,-8.015625 L25.4208984375,-10.890625 L28.2958984375,-10.890625 L28.2958984375,-8.015625 L25.4208984375,-8.015625 Z M25.4208984375,0 L25.4208984375,-2.875 L28.2958984375,-2.875 L28.2958984375,0 L25.4208984375,0 Z M40.9765625,-2.671875 L40.9765625,0 L30.8671875,0 Q31.0390625,-1.515625 31.8515625,-2.875 Q32.6796875,-4.234375 35.1015625,-6.484375 Q37.0546875,-8.296875 37.4921875,-8.9375 Q38.0859375,-9.828125 38.0859375,-10.703125 Q38.0859375,-11.671875 37.5703125,-12.1875 Q37.0546875,-12.703125 36.1328125,-12.703125 Q35.2265625,-12.703125 34.6953125,-12.15625 Q34.1640625,-11.625 34.0859375,-10.359375 L31.2109375,-10.640625 Q31.4765625,-13.015625 32.8203125,-14.046875 Q34.1796875,-15.09375 36.2109375,-15.09375 Q38.4296875,-15.09375 39.6953125,-13.890625 Q40.9765625,-12.6875 40.9765625,-10.90625 Q40.9765625,-9.890625 40.6015625,-8.96875 Q40.2421875,-8.0625 39.4609375,-7.0625 Q38.9296875,-6.390625 37.5703125,-5.140625 Q36.2109375,-3.890625 35.8359375,-3.46875 Q35.4765625,-3.0625 35.2578125,-2.671875 L40.9765625,-2.671875 Z M48.57763671875,0 L48.57763671875,-3.03125 L42.42138671875,-3.03125 L42.42138671875,-5.546875 L48.93701171875,-15.09375 L51.35888671875,-15.09375 L51.35888671875,-5.5625 L53.23388671875,-5.5625 L53.23388671875,-3.03125 L51.35888671875,-3.03125 L51.35888671875,0 L48.57763671875,0 Z M48.57763671875,-5.5625 L48.57763671875,-10.6875 L45.12451171875,-5.5625 L48.57763671875,-5.5625 Z" style="fill:rgb(247,109,2);stroke:none;"/>
  </g>
  <g transform="translate(171.211181640625 248.546875)">
    <path d="M8.265625,-0 L5.390625,-0 L5.390625,-10.859375 Q3.796875,-9.375 1.65625,-8.671875 L1.65625,-11.296875 Q2.796875,-11.65625 4.109375,-12.6875 Q5.4375,-13.71875 5.921875,-15.09375 L8.265625,-15.09375 L8.265625,-0 Z M12.56982421875,-12.15625 L12.56982421875,-14.828125 L22.42919921875,-14.828125 L22.42919921875,-12.734375 Q21.21044921875,-11.53125 19.94482421875,-9.28125 Q18.67919921875,-7.046875 18.02294921875,-4.515625 Q17.36669921875,-1.984375 17.36669921875,0 L14.58544921875,0 Q14.66357421875,-3.125 15.88232421875,-6.359375 Q17.10107421875,-9.59375 19.11669921875,-12.15625 L12.56982421875,-12.15625 Z M25.4208984375,-8.015625 L25.4208984375,-10.890625 L28.2958984375,-10.890625 L28.2958984375,-8.015625 L25.4208984375,-8.015625 Z M25.4208984375,0 L25.4208984375,-2.875 L28.2958984375,-2.875 L28.2958984375,0 L25.4208984375,0 Z M40.9765625,-2.671875 L40.9765625,0 L30.8671875,0 Q31.0390625,-1.515625 31.8515625,-2.875 Q32.6796875,-4.234375 35.1015625,-6.484375 Q37.0546875,-8.296875 37.4921875,-8.9375 Q38.0859375,-9.828125 38.0859375,-10.703125 Q38.0859375,-11.671875 37.5703125,-12.1875 Q37.0546875,-12.703125 36.1328125,-12.703125 Q35.2265625,-12.703125 34.6953125,-12.15625 Q34.1640625,-11.625 34.0859375,-10.359375 L31.2109375,-10.640625 Q31.4765625,-13.015625 32.8203125,-14.046875 Q34.1796875,-15.09375 36.2109375,-15.09375 Q38.4296875,-15.09375 39.6953125,-13.890625 Q40.9765625,-12.6875 40.9765625,-10.90625 Q40.9765625,-9.890625 40.6015625,-8.96875 Q40.2421875,-8.0625 39.4609375,-7.0625 Q38.9296875,-6.390625 37.5703125,-5.140625 Q36.2109375,-3.890625 35.8359375,-3.46875 Q35.4765625,-3.0625 35.2578125,-2.671875 L40.9765625,-2.671875 Z M48.57763671875,0 L48.57763671875,-3.03125 L42.42138671875,-3.03125 L42.42138671875,-5.546875 L48.93701171875,-15.09375 L51.35888671875,-15.09375 L51.35888671875,-5.5625 L53.23388671875,-5.5625 L53.23388671875,-3.03125 L51.35888671875,-3.03125 L51.35888671875,0 L48.57763671875,0 Z M48.57763671875,-5.5625 L48.57763671875,-10.6875 L45.12451171875,-5.5625 L48.57763671875,-5.5625 Z" style="fill:rgb(247,109,2);stroke:none;"/>
  </g>
  <g transform="translate(115.211181640625 191.6796875)">
    <path d="M8.265625,-0 L5.390625,-0 L5.390625,-10.859375 Q3.796875,-9.375 1.65625,-8.671875 L1.65625,-11.296875 Q2.796875,-11.65625 4.109375,-12.6875 Q5.4375,-13.71875 5.921875,-15.09375 L8.265625,-15.09375 L8.265625,-0 Z M15.03857421875,-8.109375 Q13.92919921875,-8.578125 13.41357421875,-9.40625 Q12.91357421875,-10.234375 12.91357421875,-11.21875 Q12.91357421875,-12.90625 14.08544921875,-14 Q15.25732421875,-15.09375 17.42919921875,-15.09375 Q19.56982421875,-15.09375 20.74169921875,-14 Q21.92919921875,-12.90625 21.92919921875,-11.21875 Q21.92919921875,-10.171875 21.38232421875,-9.359375 Q20.85107421875,-8.546875 19.86669921875,-8.109375 Q21.11669921875,-7.609375 21.75732421875,-6.640625 Q22.41357421875,-5.6875 22.41357421875,-4.421875 Q22.41357421875,-2.34375 21.08544921875,-1.03125 Q19.75732421875,0.265625 17.55419921875,0.265625 Q15.50732421875,0.265625 14.14794921875,-0.8125 Q12.52294921875,-2.078125 12.52294921875,-4.296875 Q12.52294921875,-5.515625 13.13232421875,-6.53125 Q13.74169921875,-7.5625 15.03857421875,-8.109375 Z M15.63232421875,-11.015625 Q15.63232421875,-10.15625 16.11669921875,-9.671875 Q16.61669921875,-9.1875 17.42919921875,-9.1875 Q18.24169921875,-9.1875 18.72607421875,-9.671875 Q19.22607421875,-10.15625 19.22607421875,-11.015625 Q19.22607421875,-11.828125 18.74169921875,-12.3125 Q18.25732421875,-12.8125 17.44482421875,-12.8125 Q16.61669921875,-12.8125 16.11669921875,-12.3125 Q15.63232421875,-11.828125 15.63232421875,-11.015625 Z M15.36669921875,-4.578125 Q15.36669921875,-3.390625 15.97607421875,-2.71875 Q16.58544921875,-2.046875 17.50732421875,-2.046875 Q18.39794921875,-2.046875 18.97607421875,-2.6875 Q19.56982421875,-3.328125 19.56982421875,-4.546875 Q19.56982421875,-5.59375 18.97607421875,-6.234375 Q18.38232421875,-6.875 17.46044921875,-6.875 Q16.41357421875,-6.875 15.88232421875,-6.140625 Q15.36669921875,-5.421875 15.36669921875,-4.578125 Z M25.4208984375,-8.015625 L25.4208984375,-10.890625 L28.2958984375,-10.890625 L28.2958984375,-8.015625 L25.4208984375,-8.015625 Z M25.4208984375,0 L25.4208984375,-2.875 L28.2958984375,-2.875 L28.2958984375,0 L25.4208984375,0 Z M40.9765625,-2.671875 L40.9765625,0 L30.8671875,0 Q31.0390625,-1.515625 31.8515625,-2.875 Q32.6796875,-4.234375 35.1015625,-6.484375 Q37.0546875,-8.296875 37.4921875,-8.9375 Q38.0859375,-9.828125 38.0859375,-10.703125 Q38.0859375,-11.671875 37.5703125,-12.1875 Q37.0546875,-12.703125 36.1328125,-12.703125 Q35.2265625,-12.703125 34.6953125,-12.15625 Q34.1640625,-11.625 34.0859375,-10.359375 L31.2109375,-10.640625 Q31.4765625,-13.015625 32.8203125,-14.046875 Q34.1796875,-15.09375 36.2109375,-15.09375 Q38.4296875,-15.09375 39.6953125,-13.890625 Q40.9765625,-12.6875 40.9765625,-10.90625 Q40.9765625,-9.890625 40.6015625,-8.96875 Q40.2421875,-8.0625 39.4609375,-7.0625 Q38.9296875,-6.390625 37.5703125,-5.140625 Q36.2109375,-3.890625 35.8359375,-3.46875 Q35.4765625,-3.0625 35.2578125,-2.671875 L40.9765625,-2.671875 Z M48.57763671875,0 L48.57763671875,-3.03125 L42.42138671875,-3.03125 L42.42138671875,-5.546875 L48.93701171875,-15.09375 L51.35888671875,-15.09375 L51.35888671875,-5.5625 L53.23388671875,-5.5625 L53.23388671875,-3.03125 L51.35888671875,-3.03125 L51.35888671875,0 L48.57763671875,0 Z M48.57763671875,-5.5625 L48.57763671875,-10.6875 L45.12451171875,-5.5625 L48.57763671875,-5.5625 Z" style="fill:rgb(247,109,2);stroke:none;"/>
  </g>
  <g transform="translate(60.211181640625 134.6796875)">
    <path d="M8.265625,-0 L5.390625,-0 L5.390625,-10.859375 Q3.796875,-9.375 1.65625,-8.671875 L1.65625,-11.296875 Q2.796875,-11.65625 4.109375,-12.6875 Q5.4375,-13.71875 5.921875,-15.09375 L8.265625,-15.09375 L8.265625,-0 Z M12.63232421875,-3.46875 L15.42919921875,-3.78125 Q15.52294921875,-2.9375 15.94482421875,-2.515625 Q16.38232421875,-2.109375 17.10107421875,-2.109375 Q17.99169921875,-2.109375 18.61669921875,-2.921875 Q19.24169921875,-3.75 19.41357421875,-6.34375 Q18.31982421875,-5.078125 16.69482421875,-5.078125 Q14.91357421875,-5.078125 13.63232421875,-6.4375 Q12.35107421875,-7.8125 12.35107421875,-10.015625 Q12.35107421875,-12.296875 13.71044921875,-13.6875 Q15.06982421875,-15.09375 17.16357421875,-15.09375 Q19.44482421875,-15.09375 20.91357421875,-13.328125 Q22.38232421875,-11.5625 22.38232421875,-7.5 Q22.38232421875,-3.390625 20.85107421875,-1.5625 Q19.33544921875,0.265625 16.88232421875,0.265625 Q15.11669921875,0.265625 14.02294921875,-0.671875 Q12.94482421875,-1.609375 12.63232421875,-3.46875 Z M19.14794921875,-9.765625 Q19.14794921875,-11.171875 18.50732421875,-11.9375 Q17.86669921875,-12.703125 17.03857421875,-12.703125 Q16.22607421875,-12.703125 15.69482421875,-12.0625 Q15.17919921875,-11.4375 15.17919921875,-10.015625 Q15.17919921875,-8.546875 15.74169921875,-7.859375 Q16.31982421875,-7.1875 17.17919921875,-7.1875 Q18.02294921875,-7.1875 18.58544921875,-7.84375 Q19.14794921875,-8.5 19.14794921875,-9.765625 Z M25.4208984375,-8.015625 L25.4208984375,-10.890625 L28.2958984375,-10.890625 L28.2958984375,-8.015625 L25.4208984375,-8.015625 Z M25.4208984375,0 L25.4208984375,-2.875 L28.2958984375,-2.875 L28.2958984375,0 L25.4208984375,0 Z M40.9765625,-2.671875 L40.9765625,0 L30.8671875,0 Q31.0390625,-1.515625 31.8515625,-2.875 Q32.6796875,-4.234375 35.1015625,-6.484375 Q37.0546875,-8.296875 37.4921875,-8.9375 Q38.0859375,-9.828125 38.0859375,-10.703125 Q38.0859375,-11.671875 37.5703125,-12.1875 Q37.0546875,-12.703125 36.1328125,-12.703125 Q35.2265625,-12.703125 34.6953125,-12.15625 Q34.1640625,-11.625 34.0859375,-10.359375 L31.2109375,-10.640625 Q31.4765625,-13.015625 32.8203125,-14.046875 Q34.1796875,-15.09375 36.2109375,-15.09375 Q38.4296875,-15.09375 39.6953125,-13.890625 Q40.9765625,-12.6875 40.9765625,-10.90625 Q40.9765625,-9.890625 40.6015625,-8.96875 Q40.2421875,-8.0625 39.4609375,-7.0625 Q38.9296875,-6.390625 37.5703125,-5.140625 Q36.2109375,-3.890625 35.8359375,-3.46875 Q35.4765625,-3.0625 35.2578125,-2.671875 L40.9765625,-2.671875 Z M48.57763671875,0 L48.57763671875,-3.03125 L42.42138671875,-3.03125 L42.42138671875,-5.546875 L48.93701171875,-15.09375 L51.35888671875,-15.09375 L51.35888671875,-5.5625 L53.23388671875,-5.5625 L53.23388671875,-3.03125 L51.35888671875,-3.03125 L51.35888671875,0 L48.57763671875,0 Z M48.57763671875,-5.5625 L48.57763671875,-10.6875 L45.12451171875,-5.5625 L48.57763671875,-5.5625 Z" style="fill:rgb(247,109,2);stroke:none;"/>
  </g>
  <g transform="translate(3.640869140625 78.671875)">
    <path d="M10.625,-2.671875 L10.625,-0 L0.515625,-0 Q0.6875,-1.515625 1.5,-2.875 Q2.328125,-4.234375 4.75,-6.484375 Q6.703125,-8.296875 7.140625,-8.9375 Q7.734375,-9.828125 7.734375,-10.703125 Q7.734375,-11.671875 7.21875,-12.1875 Q6.703125,-12.703125 5.78125,-12.703125 Q4.875,-12.703125 4.34375,-12.15625 Q3.8125,-11.625 3.734375,-10.359375 L0.859375,-10.640625 Q1.125,-13.015625 2.46875,-14.046875 Q3.828125,-15.09375 5.859375,-15.09375 Q8.078125,-15.09375 9.34375,-13.890625 Q10.625,-12.6875 10.625,-10.90625 Q10.625,-9.890625 10.25,-8.96875 Q9.890625,-8.0625 9.109375,-7.0625 Q8.578125,-6.390625 7.21875,-5.140625 Q5.859375,-3.890625 5.484375,-3.46875 Q5.125,-3.0625 4.90625,-2.671875 L10.625,-2.671875 Z M17.44482421875,-15.09375 Q19.63232421875,-15.09375 20.85107421875,-13.53125 Q22.31982421875,-11.6875 22.31982421875,-7.40625 Q22.31982421875,-3.140625 20.85107421875,-1.28125 Q19.63232421875,0.25 17.44482421875,0.25 Q15.24169921875,0.25 13.89794921875,-1.4375 Q12.55419921875,-3.125 12.55419921875,-7.4375 Q12.55419921875,-11.6875 14.03857421875,-13.5625 Q15.25732421875,-15.09375 17.44482421875,-15.09375 Z M17.44482421875,-12.703125 Q16.91357421875,-12.703125 16.50732421875,-12.359375 Q16.10107421875,-12.03125 15.86669921875,-11.171875 Q15.56982421875,-10.0625 15.56982421875,-7.40625 Q15.56982421875,-4.765625 15.83544921875,-3.78125 Q16.11669921875,-2.796875 16.50732421875,-2.46875 Q16.91357421875,-2.140625 17.44482421875,-2.140625 Q17.96044921875,-2.140625 18.36669921875,-2.46875 Q18.78857421875,-2.796875 19.00732421875,-3.65625 Q19.30419921875,-4.765625 19.30419921875,-7.40625 Q19.30419921875,-10.0625 19.03857421875,-11.046875 Q18.77294921875,-12.03125 18.36669921875,-12.359375 Q17.96044921875,-12.703125 17.44482421875,-12.703125 Z M25.4208984375,-8.015625 L25.4208984375,-10.890625 L28.2958984375,-10.890625 L28.2958984375,-8.015625 L25.4208984375,-8.015625 Z M25.4208984375,0 L25.4208984375,-2.875 L28.2958984375,-2.875 L28.2958984375,0 L25.4208984375,0 Z M40.9765625,-2.671875 L40.9765625,0 L30.8671875,0 Q31.0390625,-1.515625 31.8515625,-2.875 Q32.6796875,-4.234375 35.1015625,-6.484375 Q37.0546875,-8.296875 37.4921875,-8.9375 Q38.0859375,-9.828125 38.0859375,-10.703125 Q38.0859375,-11.671875 37.5703125,-12.1875 Q37.0546875,-12.703125 36.1328125,-12.703125 Q35.2265625,-12.703125 34.6953125,-12.15625 Q34.1640625,-11.625 34.0859375,-10.359375 L31.2109375,-10.640625 Q31.4765625,-13.015625 32.8203125,-14.046875 Q34.1796875,-15.09375 36.2109375,-15.09375 Q38.4296875,-15.09375 39.6953125,-13.890625 Q40.9765625,-12.6875 40.9765625,-10.90625 Q40.9765625,-9.890625 40.6015625,-8.96875 Q40.2421875,-8.0625 39.4609375,-7.0625 Q38.9296875,-6.390625 37.5703125,-5.140625 Q36.2109375,-3.890625 35.8359375,-3.46875 Q35.4765625,-3.0625 35.2578125,-2.671875 L40.9765625,-2.671875 Z M48.57763671875,0 L48.57763671875,-3.03125 L42.42138671875,-3.03125 L42.42138671875,-5.546875 L48.93701171875,-15.09375 L51.35888671875,-15.09375 L51.35888671875,-5.5625 L53.23388671875,-5.5625 L53.23388671875,-3.03125 L51.35888671875,-3.03125 L51.35888671875,0 L48.57763671875,0 Z M48.57763671875,-5.5625 L48.57763671875,-10.6875 L45.12451171875,-5.5625 L48.57763671875,-5.5625 Z" style="fill:rgb(247,109,2);stroke:none;"/>
  </g>
</svg>
